<svg width="1440" height="914" viewBox="0 0 1440 914" fill="none" xmlns="http://www.w3.org/2000/svg">
<g clip-path="url(#clip0_2_50)">
<rect width="1440" height="914" fill="#1A274C"/>
<path d="M377.781 265.336C377.781 256.635 380.109 249.173 384.764 242.949C387.442 239.393 390.727 236.535 394.617 234.376C399.846 231.518 405.777 230.089 412.409 230.089C416.745 230.089 420.635 230.597 424.079 231.613C427.523 232.566 431.062 234.058 434.697 236.09C436.546 236.979 437.471 238.535 437.471 240.758C437.471 241.965 436.993 243.076 436.036 244.092C435.079 245.045 433.9 245.521 432.497 245.521C431.604 245.521 430.87 245.362 430.297 245.045C427.427 243.521 424.685 242.409 422.07 241.711C419.519 241.012 416.586 240.663 413.27 240.663C407.977 240.663 403.513 241.742 399.878 243.902C396.307 245.997 393.564 248.887 391.651 252.57C389.738 256.254 388.782 260.541 388.782 265.431C388.782 270.321 389.738 274.576 391.651 278.196C394.266 283.404 398.379 286.928 403.991 288.77C406.733 289.723 409.794 290.199 413.174 290.199C416.554 290.199 419.519 289.85 422.07 289.151C424.685 288.453 427.427 287.341 430.297 285.817C430.87 285.5 431.604 285.341 432.497 285.341C433.963 285.341 435.143 285.817 436.036 286.77C436.993 287.659 437.471 288.834 437.471 290.294C437.471 292.327 436.546 293.819 434.697 294.772C431.062 296.804 427.523 298.296 424.079 299.249C420.635 300.265 416.745 300.773 412.409 300.773C405.84 300.773 399.973 299.344 394.808 296.486C389.451 293.565 385.274 289.437 382.277 284.102C379.28 278.704 377.781 272.449 377.781 265.336ZM477.283 292.104C473.393 287.278 471.448 281.34 471.448 274.29C471.448 269.21 472.5 264.669 474.605 260.668C476.773 256.603 479.802 253.46 483.692 251.237C487.582 249.078 492.046 247.998 497.084 247.998C502.122 247.998 506.554 249.078 510.38 251.237C514.334 253.523 517.364 256.667 519.468 260.668C521.636 264.669 522.72 269.242 522.72 274.386C522.72 279.53 521.668 284.07 519.563 288.008C517.332 292.136 514.271 295.312 510.38 297.534C506.491 299.694 502.026 300.773 496.988 300.773C489.591 300.773 483.565 298.455 478.909 293.819C478.335 293.311 477.793 292.74 477.283 292.104ZM509.52 265.145C507.607 261.716 504.737 259.556 500.911 258.667C499.699 258.35 498.583 258.191 497.562 258.191C496.606 258.191 495.841 258.223 495.267 258.286C494.693 258.35 494.087 258.445 493.449 258.572C489.432 259.461 486.466 261.652 484.553 265.145C483.15 267.622 482.449 270.734 482.449 274.481C482.449 278.228 483.15 281.244 484.553 283.531C485.318 284.801 486.115 285.849 486.945 286.674C487.774 287.5 488.73 288.199 489.814 288.77C491.983 289.977 494.406 290.58 497.084 290.58C499.507 290.58 501.867 290.009 504.163 288.865C506.459 287.722 508.276 285.912 509.615 283.435C511.018 280.959 511.72 277.878 511.72 274.195C511.72 270.511 510.986 267.495 509.52 265.145ZM561.48 280.959V253.904C561.48 252.444 562.022 251.173 563.106 250.094C564.254 249.014 565.562 248.474 567.028 248.474C568.559 248.474 569.834 249.014 570.855 250.094C571.939 251.11 572.481 252.38 572.481 253.904V280.006C572.481 283.753 573.342 286.484 575.064 288.199C576.594 289.723 578.858 290.485 581.855 290.485C584.725 290.485 587.276 289.786 589.508 288.389C591.803 286.928 594.099 284.833 596.395 282.102V253.904C596.395 252.444 596.937 251.173 598.021 250.094C599.169 249.014 600.476 248.474 601.943 248.474C603.474 248.474 604.749 249.014 605.769 250.094C606.854 251.11 607.396 252.38 607.396 253.904V294.772C607.396 296.232 606.854 297.534 605.769 298.677C604.685 299.757 603.378 300.297 601.848 300.297C600.381 300.297 599.105 299.757 598.021 298.677C596.937 297.598 596.395 296.296 596.395 294.772V293.724C594.291 295.692 592.091 297.28 589.795 298.487C586.861 300.011 583.513 300.773 579.751 300.773C574.649 300.773 570.472 299.122 567.22 295.819C565.817 294.422 564.637 292.803 563.68 290.961C562.214 287.976 561.48 284.642 561.48 280.959ZM660.599 254.857C664.745 250.284 669.368 247.998 674.471 247.998H674.949C676.479 247.998 677.754 248.538 678.774 249.617C679.795 250.697 680.306 251.967 680.306 253.428C680.306 254.952 679.763 256.222 678.678 257.238C677.596 258.191 676.288 258.667 674.758 258.667H674.28C669.879 258.667 666.084 260.255 662.896 263.43C662.066 264.256 661.301 265.177 660.599 266.193V294.867C660.599 296.328 660.058 297.598 658.973 298.677C657.826 299.757 656.487 300.297 654.957 300.297C653.49 300.297 652.215 299.757 651.13 298.677C650.109 297.661 649.6 296.391 649.6 294.867V254C649.6 252.539 650.141 251.237 651.226 250.094C652.31 249.014 653.586 248.474 655.053 248.474C656.583 248.474 657.889 249.014 658.973 250.094C660.058 251.173 660.599 252.475 660.599 254V254.857ZM712.752 294.105C712.497 293.533 712.369 292.993 712.369 292.485C712.369 291.977 712.402 291.565 712.465 291.247C712.528 290.93 712.623 290.644 712.752 290.39C713.008 289.755 713.391 289.151 713.899 288.58C714.792 287.69 715.909 287.246 717.248 287.246C718.013 287.246 718.745 287.405 719.447 287.722C721.553 288.675 723.561 289.373 725.474 289.818C727.451 290.263 729.62 290.485 731.978 290.485C735.997 290.485 738.739 289.755 740.206 288.294C741.034 287.468 741.449 286.325 741.449 284.864C741.449 283.912 740.876 283.15 739.728 282.578C738.196 281.816 735.581 280.991 731.883 280.101C728.184 279.276 725.061 278.323 722.509 277.243C719.576 276.164 717.215 274.544 715.431 272.385C713.645 270.162 712.752 267.432 712.752 264.192C712.752 259.874 714.186 256.254 717.057 253.333L718.109 252.475C721.616 249.49 726.43 247.998 732.552 247.998C737.783 247.998 742.534 248.824 746.806 250.475C747.891 250.792 748.751 251.396 749.388 252.285C750.027 253.11 750.344 254.063 750.344 255.143C750.344 256.476 749.836 257.651 748.814 258.667C747.858 259.62 746.711 260.096 745.372 260.096H745.274L743.84 259.906C740.078 258.763 736.603 258.191 733.415 258.191C729.268 258.191 726.334 259.048 724.613 260.763C723.785 261.589 723.37 262.573 723.37 263.716C723.37 265.113 724.039 266.161 725.378 266.86C726.973 267.559 729.683 268.384 733.51 269.337C737.335 270.353 740.428 271.305 742.788 272.195C745.594 273.274 747.858 274.925 749.579 277.148C751.301 279.371 752.163 282.165 752.163 285.531C752.163 289.977 750.377 293.629 746.806 296.486C743.299 299.344 738.548 300.773 732.552 300.773C726.047 300.773 720.054 299.312 714.568 296.391C713.677 295.819 713.071 295.057 712.752 294.105ZM787.958 274.386C787.958 269.876 788.819 265.59 790.54 261.525C792.326 257.334 795.069 254.031 798.766 251.618C802.464 249.205 806.865 247.998 811.968 247.998C817.006 247.998 821.309 249.141 824.882 251.427C828.324 253.65 831.004 256.667 832.916 260.477C834.894 264.288 835.883 268.511 835.883 273.147C835.883 274.671 835.339 275.973 834.255 277.053C833.236 278.069 831.927 278.577 830.334 278.577H799.246C799.883 282.26 801.413 285.087 803.836 287.055C806.45 289.278 810.053 290.39 814.646 290.39C818.153 290.39 821.309 289.882 824.117 288.865C825.073 288.484 826.062 288.04 827.081 287.532C827.655 287.214 828.389 287.055 829.28 287.055C830.684 287.055 831.864 287.532 832.82 288.484C833.777 289.437 834.255 290.58 834.255 291.914C834.255 293.756 833.203 295.28 831.099 296.486C828.357 297.947 825.742 299.027 823.254 299.725C820.768 300.424 817.642 300.773 813.881 300.773C805.718 300.773 799.342 298.455 794.749 293.819C790.22 289.12 787.958 282.642 787.958 274.386ZM824.786 269.242C824.849 269.242 824.882 269.242 824.882 269.242C824.882 269.178 824.882 269.146 824.882 269.146C824.625 266.796 823.925 264.828 822.776 263.24C821.5 261.398 819.874 260.001 817.899 259.048C815.984 258.096 814.039 257.62 812.064 257.62C810.086 257.62 808.078 258.064 806.037 258.953C803.038 260.414 800.967 262.795 799.82 266.098C799.5 267.05 799.276 268.098 799.15 269.242H824.786ZM871.677 294.867C871.677 294.232 871.868 293.47 872.251 292.581L896.643 235.138C897.28 233.74 898.141 232.629 899.225 231.803C900.373 230.978 901.711 230.565 903.244 230.565H904.2C906.623 230.565 908.568 231.613 910.035 233.709C910.289 234.153 910.546 234.63 910.8 235.138L935.192 292.581C935.575 293.533 935.766 294.295 935.766 294.867C935.766 296.391 935.225 297.661 934.141 298.677C933.119 299.757 931.843 300.297 930.313 300.297C928.721 300.297 927.412 299.789 926.391 298.773C925.882 298.265 925.467 297.629 925.148 296.867L919.217 282.769H888.224L882.293 296.867C881.848 297.947 881.146 298.773 880.19 299.344C879.297 299.979 878.277 300.297 877.128 300.297C875.535 300.297 874.226 299.757 873.207 298.677C872.186 297.598 871.677 296.328 871.677 294.867ZM915.01 272.576L903.722 245.616L892.434 272.576H915.01ZM967.123 294.867V236.567C967.123 235.106 967.664 233.804 968.748 232.661C969.833 231.581 971.108 231.041 972.575 231.041H994.384C1000.57 231.041 1005.67 232.089 1009.69 234.185C1014.73 236.852 1018.11 240.631 1019.83 245.521C1020.66 247.934 1021.07 250.538 1021.07 253.333C1021.07 257.27 1020.21 260.858 1018.49 264.097C1016.64 267.654 1013.68 270.48 1009.59 272.576C1005.51 274.608 1000.44 275.624 994.384 275.624H978.124V294.867C978.124 296.328 977.58 297.598 976.496 298.677C975.348 299.757 974.01 300.297 972.48 300.297C971.013 300.297 969.737 299.757 968.653 298.677C967.633 297.661 967.123 296.391 967.123 294.867ZM1010.07 253.333C1010.07 249.522 1008.7 246.601 1005.96 244.569C1003.22 242.536 999.071 241.52 993.523 241.52H978.219C978.219 241.52 978.187 241.52 978.124 241.52C978.124 241.52 978.124 241.552 978.124 241.615V265.145H993.523C999.071 265.145 1003.25 264.129 1006.05 262.097L1007.2 261.049C1009.12 259.144 1010.07 256.572 1010.07 253.333ZM1050.99 294.867V236.09C1050.99 234.63 1051.54 233.328 1052.62 232.184C1053.71 231.105 1054.98 230.565 1056.45 230.565C1057.98 230.565 1059.28 231.105 1060.37 232.184C1061.45 233.264 1061.99 234.566 1061.99 236.09V294.867C1061.99 296.328 1061.45 297.598 1060.37 298.677C1059.22 299.757 1057.88 300.297 1056.35 300.297C1054.88 300.297 1053.61 299.757 1052.53 298.677C1051.5 297.661 1050.99 296.391 1050.99 294.867Z" fill="white"/>
<path d="M272.028 373.023C272.028 377.762 269.861 380.131 265.528 380.131C265.375 380.131 265.196 380.131 264.993 380.131H249.622V418.497C249.622 419.822 249.29 420.815 248.628 421.478C247.965 422.14 247.022 422.471 245.798 422.471C244.626 422.471 243.708 422.14 243.045 421.478C242.382 420.815 242.051 419.822 242.051 418.497V361.33C242.051 358.681 242.688 356.694 243.963 355.369C245.135 354.197 246.869 353.611 249.163 353.611C249.367 353.611 249.571 353.611 249.775 353.611H264.993C267.44 353.611 269.224 354.197 270.346 355.369C271.467 356.49 272.028 358.095 272.028 360.184C272.028 360.337 272.028 360.515 272.028 360.719V373.023ZM307.97 413.3C307.97 419.363 305.395 422.395 300.246 422.395C299.94 422.395 299.609 422.37 299.252 422.319H294.817C293.44 422.319 292.395 421.962 291.681 421.248C291.018 420.586 290.687 419.618 290.687 418.344C290.687 417.02 291.018 416.001 291.681 415.287C292.395 414.625 293.389 414.294 294.664 414.294H297.875C299.15 414.294 299.94 413.835 300.246 412.918C300.348 412.612 300.399 412.256 300.399 411.848V380.131H284.11C281.663 380.131 279.828 379.545 278.605 378.373C277.534 377.303 276.999 375.724 276.999 373.635C276.999 373.431 276.999 373.227 276.999 373.023V360.719C276.999 355.98 279.267 353.611 283.805 353.611C283.907 353.611 284.009 353.611 284.11 353.611H300.246C302.948 353.611 304.911 354.222 306.134 355.445C307.358 356.668 307.97 358.528 307.97 361.024C307.97 361.126 307.97 361.228 307.97 361.33V413.3ZM264.763 361.865C264.763 361.356 264.636 360.974 264.381 360.719C264.177 360.464 263.794 360.337 263.234 360.337H251.304C250.743 360.337 250.335 360.464 250.081 360.719C249.826 360.974 249.673 361.381 249.622 361.942V363.547H264.763V361.865ZM300.399 361.942C300.399 361.279 300.195 360.821 299.787 360.566C299.481 360.464 299.124 360.388 298.717 360.337H285.793C285.232 360.337 284.824 360.464 284.569 360.719C284.365 360.923 284.263 361.305 284.263 361.865V363.547H300.399V361.942ZM249.622 373.482H263.234C263.845 373.482 264.279 373.278 264.534 372.871C264.636 372.616 264.712 372.285 264.763 371.877V369.966H249.622V373.482ZM300.399 373.482V369.966H284.263V371.877C284.263 372.437 284.391 372.845 284.646 373.1C284.901 373.304 285.283 373.431 285.793 373.482H300.399ZM286.557 403.594V416.969C286.557 418.293 286.226 419.287 285.564 419.949C284.901 420.612 284.009 420.943 282.887 420.943C281.765 420.943 280.873 420.612 280.21 419.949C279.548 419.287 279.216 418.293 279.216 416.969V403.594H269.887C269.224 408.791 267.516 412.842 264.763 415.746C261.755 418.905 258.722 420.484 255.663 420.484C254.49 420.484 253.573 420.153 252.91 419.491C252.298 418.879 251.992 417.962 251.992 416.739C251.992 415.16 253.19 413.886 255.587 412.918C259.614 411.237 261.959 408.129 262.622 403.594H255.434C253.853 403.594 252.757 403.084 252.145 402.065C251.788 401.505 251.61 400.843 251.61 400.079C251.61 399.06 251.916 398.244 252.528 397.633C253.19 396.97 254.159 396.639 255.434 396.639H263.081L263.157 391.442L263.081 389.914H257.957C256.683 389.914 255.714 389.608 255.051 388.997C254.439 388.334 254.134 387.494 254.134 386.475C254.134 385.456 254.439 384.64 255.051 384.029C255.714 383.367 256.683 383.035 257.957 383.035H291.987C293.721 383.035 294.867 383.596 295.428 384.717C295.683 385.226 295.811 385.838 295.811 386.551C295.811 387.57 295.505 388.385 294.893 388.997C294.281 389.608 293.313 389.914 291.987 389.914H286.557V396.639H294.664C295.938 396.639 296.881 396.97 297.493 397.633C298.156 398.244 298.487 399.085 298.487 400.155C298.487 401.174 298.181 401.989 297.569 402.601C296.907 403.263 295.938 403.594 294.664 403.594H286.557ZM279.216 396.639V389.914H270.346L270.422 392.818L270.269 396.639H279.216ZM398.598 417.886C398.598 418.599 398.445 419.236 398.139 419.796C397.833 420.408 397.528 420.867 397.221 421.172C396.508 421.886 395.692 422.242 394.774 422.242C393.857 422.242 393.041 422.013 392.327 421.554C387.892 419.007 383.405 414.956 378.868 409.402C376.829 411.695 374.484 413.963 371.833 416.205C369.233 418.497 366.327 420.332 363.115 421.707C362.401 422.013 361.764 422.166 361.203 422.166C359.623 422.166 358.527 421.427 357.915 419.949C357.66 419.389 357.533 418.829 357.533 418.268C357.533 417.045 358.297 415.975 359.827 415.058C365.027 412.256 369.794 408.511 374.127 403.823C371.935 400.104 370.303 396.308 369.233 392.436C368.213 388.563 367.499 384.437 367.091 380.055C365.919 381.838 365.129 382.933 364.721 383.341C363.854 384.207 362.962 384.64 362.045 384.64C361.28 384.64 360.515 384.334 359.75 383.723C358.884 383.061 358.45 382.246 358.45 381.278C358.45 380.564 358.731 379.8 359.291 378.985C361.484 375.571 363.472 371.673 365.256 367.291C367.041 362.91 368.545 358.553 369.768 354.222C370.176 352.796 370.992 351.879 372.215 351.471C372.623 351.369 373.031 351.318 373.439 351.318C374.764 351.318 375.835 351.7 376.65 352.465C377.313 353.178 377.645 354.044 377.645 355.063C377.645 355.369 377.594 355.751 377.492 356.21C376.574 359.674 375.376 363.062 373.898 366.374H394.698C396.176 366.374 397.272 366.884 397.986 367.903C398.394 368.463 398.598 369.151 398.598 369.966C398.598 371.087 398.292 371.953 397.68 372.565C397.018 373.227 396.023 373.558 394.698 373.558H392.404C392.047 380.233 391.129 386.067 389.651 391.06C388.172 396.002 386.21 400.257 383.762 403.823C387.076 407.797 391.282 411.313 396.38 414.37C397.859 415.236 398.598 416.408 398.598 417.886ZM364.033 367.291C364.033 369.737 362.554 370.96 359.597 370.96H344.991C344.991 373.304 344.94 376.157 344.838 379.52H353.327C355.876 379.52 357.788 380.157 359.062 381.43C360.184 382.551 360.744 384.105 360.744 386.092C360.744 388.029 360.693 389.888 360.592 391.671C360.49 395.238 360.26 399.11 359.903 403.288C359.546 407.466 358.986 411.084 358.221 414.141C357.609 416.485 356.64 418.192 355.315 419.262C354.04 420.332 352.052 420.867 349.35 420.867C348.33 420.867 347.107 420.79 345.679 420.637C344.303 420.484 343.283 420.077 342.62 419.415C342.009 418.752 341.703 417.962 341.703 417.045C341.703 415.568 342.111 414.497 342.927 413.835C343.538 413.326 344.482 413.071 345.756 413.071C346.062 413.071 346.291 413.071 346.444 413.071C346.648 413.071 346.827 413.096 346.98 413.147C347.285 413.147 347.668 413.147 348.126 413.147C349.299 413.147 350.038 412.995 350.344 412.689C350.701 412.332 350.956 411.823 351.109 411.16C352.333 404.639 352.944 397.047 352.944 388.385C352.944 387.825 352.817 387.417 352.562 387.162C352.256 386.857 351.746 386.704 351.033 386.704H344.532C344.278 391.544 343.717 396.13 342.85 400.46C342.034 404.792 340.913 408.536 339.485 411.695C337.803 415.568 336.273 418.192 334.897 419.567C333.877 420.586 332.756 421.096 331.532 421.096C330.36 421.096 329.417 420.739 328.703 420.026C328.04 419.363 327.709 418.472 327.709 417.351C327.709 416.638 327.836 416.001 328.091 415.44C328.397 414.931 328.805 414.319 329.314 413.606C332.016 409.988 333.954 405.326 335.126 399.62C335.738 396.767 336.222 392.843 336.579 387.85C336.936 382.806 337.14 377.176 337.191 370.96H331.915C330.436 370.96 329.314 370.603 328.55 369.89C327.938 369.279 327.632 368.387 327.632 367.215C327.632 366.094 327.938 365.228 328.55 364.616L328.779 364.464C329.442 363.903 330.487 363.623 331.915 363.623H342.62V355.751C342.62 354.273 343.003 353.153 343.768 352.388C344.482 351.675 345.45 351.318 346.674 351.318C347.948 351.318 348.942 351.726 349.656 352.541C350.37 353.305 350.727 354.375 350.727 355.751V363.623H359.597C362.197 363.623 363.651 364.616 363.956 366.604C364.007 366.807 364.033 367.037 364.033 367.291ZM373.515 373.558C374.025 379.52 374.713 384.386 375.58 388.156C376.498 391.875 377.645 395.111 379.021 397.862C382.233 391.901 384.094 383.8 384.604 373.558H373.515ZM487.085 404.511C487.085 408.587 486.371 412.409 484.944 415.975C483.465 419.695 481.503 421.554 479.056 421.554C475.946 421.554 472.428 418.879 468.503 413.53C464.628 408.231 461.645 402.015 459.555 394.881C457.465 387.748 456.19 379.902 455.732 371.342H420.937C419.357 371.342 418.209 370.985 417.496 370.272C416.782 369.559 416.425 368.642 416.425 367.521C416.425 366.349 416.756 365.432 417.419 364.769C418.184 364.005 419.357 363.623 420.937 363.623H455.349C455.196 358.324 455.12 355.496 455.12 355.14C455.12 354.783 455.196 354.35 455.349 353.84C455.553 353.28 455.834 352.796 456.19 352.388C456.904 351.675 457.848 351.318 459.02 351.318C461.773 351.318 463.15 353.127 463.15 356.745V363.623H481.809C484.205 363.623 485.709 364.413 486.32 365.992C486.473 366.451 486.55 366.96 486.55 367.521C486.55 368.998 485.989 370.068 484.867 370.731C484.103 371.138 483.083 371.342 481.809 371.342H463.608C464.475 384.589 467.101 395.264 471.485 403.365C472.912 406.014 474.493 408.307 476.226 410.243C476.991 411.058 477.552 411.517 477.909 411.619C478.622 411.058 479.183 408.485 479.591 403.9C479.642 402.779 479.999 401.938 480.661 401.378C481.324 400.817 482.216 400.537 483.338 400.537C484.51 400.537 485.428 400.868 486.091 401.531C486.754 402.193 487.085 403.187 487.085 404.511ZM468.732 355.598C468.732 354.528 469.038 353.687 469.649 353.076C470.312 352.414 471.332 352.083 472.708 352.083C473.422 352.083 474.212 352.414 475.079 353.076C475.742 353.637 476.506 354.401 477.373 355.369C479.107 357.254 479.973 358.732 479.973 359.802C479.973 360.872 479.642 361.738 478.979 362.4C478.367 363.012 477.373 363.317 475.997 363.317C475.487 363.317 474.977 363.164 474.467 362.859C474.009 362.553 473.55 362.171 473.091 361.712C472.071 360.693 471.077 359.521 470.108 358.197C469.802 357.789 469.497 357.356 469.191 356.897C468.885 356.388 468.732 355.955 468.732 355.598ZM456.343 411.007C455.63 411.517 453.896 412.026 451.143 412.536L439.672 414.752L422.313 417.351C420.733 417.504 419.841 417.58 419.637 417.58C418.617 417.58 417.776 417.224 417.113 416.51C416.451 415.797 416.119 414.752 416.119 413.377C416.17 411.746 416.68 410.625 417.649 410.014C418.362 409.606 419.866 409.275 422.161 409.02C424.047 408.817 427.463 408.383 432.408 407.721V388.997H423.078C421.498 388.997 420.325 388.614 419.561 387.85C418.898 387.188 418.566 386.296 418.566 385.175C418.566 384.054 418.898 383.163 419.561 382.5C420.325 381.736 421.498 381.354 423.078 381.354H449.614C451.194 381.354 452.367 381.736 453.131 382.5C453.794 383.163 454.126 384.054 454.126 385.175C454.126 386.296 453.794 387.188 453.131 387.85C452.367 388.614 451.194 388.997 449.614 388.997H440.208V406.651L453.896 404.435C454.151 404.384 454.406 404.358 454.661 404.358C455.528 404.358 456.242 404.689 456.802 405.352C457.414 406.014 457.72 406.957 457.72 408.18C457.72 409.352 457.261 410.294 456.343 411.007ZM555.384 418.727C555.384 420 555.052 420.943 554.389 421.554C553.778 422.217 552.937 422.548 551.866 422.548C550.796 422.548 549.929 422.217 549.266 421.554C548.654 420.943 548.348 420 548.348 418.727V405.046C547.685 405.912 547.074 406.651 546.513 407.263C546.003 407.823 545.493 408.332 544.984 408.791C543.862 409.912 542.332 411.339 540.395 413.071C536.572 416.434 533.844 418.115 532.213 418.115C530.938 418.115 529.969 417.784 529.307 417.122C528.644 416.459 528.313 415.491 528.313 414.217C528.313 413.504 528.695 412.765 529.46 412.001C530.275 411.186 531.346 410.345 532.672 409.479C535.781 407.441 538.713 405.072 541.466 402.371C543.046 400.741 544.372 399.161 545.442 397.633H533.283C531.856 397.633 530.785 397.302 530.072 396.639C529.409 395.926 529.077 395.06 529.077 394.041C529.077 392.971 529.383 392.13 529.995 391.519C530.709 390.805 531.805 390.449 533.283 390.449H548.348V386.704H540.472C540.115 386.755 539.758 386.78 539.401 386.78C536.189 386.78 534.099 385.634 533.13 383.341C532.672 382.373 532.442 381.201 532.442 379.825C532.442 379.469 532.468 379.112 532.519 378.755V362.477C532.468 362.12 532.442 361.738 532.442 361.33C532.442 360.872 532.468 360.362 532.519 359.802C532.62 359.19 532.824 358.553 533.13 357.891C534.099 355.598 536.189 354.452 539.401 354.452C539.758 354.452 540.115 354.477 540.472 354.528H563.719C564.025 354.528 564.356 354.528 564.713 354.528C567.007 354.528 568.74 355.114 569.915 356.286C571.138 357.458 571.748 359.165 571.748 361.407C571.748 361.763 571.722 362.12 571.673 362.477V378.755C571.722 379.112 571.748 379.469 571.748 379.825C571.748 382.067 571.138 383.774 569.915 384.946C568.74 386.118 567.007 386.704 564.713 386.704C564.356 386.704 564.025 386.704 563.719 386.704H555.384V390.449H571.138C572.665 390.449 573.787 390.805 574.502 391.519C575.112 392.13 575.419 392.971 575.419 394.041C575.419 395.06 575.112 395.9 574.502 396.563C573.739 397.276 572.616 397.633 571.138 397.633H557.754C560.762 401.862 564.407 405.225 568.691 407.721C569.963 408.485 571.34 409.199 572.818 409.861C574.858 410.778 575.879 412.103 575.879 413.835C575.879 415.211 575.52 416.23 574.809 416.892C574.146 417.606 573.177 417.962 571.902 417.962C570.068 417.962 567.186 416.434 563.26 413.377C560.66 411.39 558.035 408.511 555.384 404.741V418.727ZM508.048 360.566C507.385 359.904 507.053 359.037 507.053 357.967C507.053 356.897 507.385 356.031 508.048 355.369C508.71 354.707 509.755 354.375 511.183 354.375H525.636C527.114 354.375 528.185 354.707 528.848 355.369C529.511 356.031 529.842 356.897 529.842 357.967C529.842 358.477 529.791 358.885 529.689 359.19C529.485 359.751 529.23 360.184 528.924 360.489C528.211 361.203 527.114 361.559 525.636 361.559H511.183C509.755 361.559 508.71 361.228 508.048 360.566ZM548.348 366.909V361.712H541.619C540.956 361.712 540.472 361.865 540.166 362.171C539.911 362.426 539.784 362.884 539.784 363.547V366.909H548.348ZM564.331 363.547C564.331 362.884 564.178 362.426 563.872 362.171C563.617 361.865 563.158 361.712 562.496 361.712H555.384V366.909H564.331V363.547ZM505.294 370.883C504.632 370.221 504.301 369.355 504.301 368.285C504.301 367.215 504.632 366.349 505.294 365.686C505.957 365.024 506.977 364.693 508.353 364.693H528.007C529.383 364.693 530.403 365.024 531.066 365.686C531.728 366.349 532.06 367.215 532.06 368.285C532.06 369.355 531.728 370.221 531.066 370.883C530.403 371.546 529.383 371.877 528.007 371.877H508.353C506.977 371.877 505.957 371.546 505.294 370.883ZM548.348 379.52V373.941H539.784V377.685C539.784 378.501 540.013 379.036 540.472 379.29C540.777 379.443 541.16 379.52 541.619 379.52H548.348ZM555.384 379.52H562.496C563.158 379.52 563.617 379.392 563.872 379.138C564.178 378.832 564.331 378.348 564.331 377.685V373.941H555.384V379.52ZM506.977 378.45C506.977 377.38 507.308 376.514 507.971 375.851C508.634 375.189 509.654 374.858 511.03 374.858H525.024C526.401 374.858 527.421 375.189 528.083 375.851C528.695 376.463 529.001 377.303 529.001 378.373C529.001 379.443 528.67 380.309 528.007 380.972C527.344 381.634 526.35 381.965 525.024 381.965H511.03C509.654 381.965 508.609 381.609 507.895 380.895C507.283 380.284 506.977 379.469 506.977 378.45ZM511.03 392.13C509.654 392.13 508.634 391.799 507.971 391.137C507.308 390.474 506.977 389.633 506.977 388.614C506.977 387.544 507.308 386.678 507.971 386.016C508.634 385.353 509.654 385.022 511.03 385.022H525.024C526.35 385.022 527.344 385.353 528.007 386.016C528.67 386.678 529.001 387.544 529.001 388.614C529.001 389.379 528.823 390.041 528.466 390.602C527.854 391.621 526.707 392.13 525.024 392.13H511.03ZM507.13 412.612V401.989C507.13 399.747 507.716 398.041 508.889 396.869C510.061 395.697 511.82 395.111 514.165 395.111H522.042C524.387 395.111 526.146 395.697 527.318 396.869C528.491 398.041 529.077 399.747 529.077 401.989V412.459C529.077 415.568 528.007 417.657 525.865 418.727C524.795 419.236 523.52 419.491 522.042 419.491H514.165C511.871 419.491 510.112 418.879 508.889 417.657C507.716 416.485 507.13 414.803 507.13 412.612ZM522.042 411.313V403.212C522.042 402.703 521.915 402.397 521.66 402.295C521.456 402.193 521.201 402.142 520.895 402.142H515.313C514.854 402.142 514.548 402.218 514.395 402.371C514.242 402.524 514.165 402.804 514.165 403.212V411.313C514.165 411.721 514.242 412.026 514.395 412.23C514.599 412.383 514.905 412.459 515.313 412.459H520.895C521.303 412.459 521.583 412.383 521.736 412.23C521.94 412.026 522.042 411.721 522.042 411.313ZM611.982 418.268C611.982 419.746 611.626 420.815 610.912 421.478C610.249 422.191 609.332 422.548 608.158 422.548C607.035 422.548 606.119 422.191 605.404 421.478C604.742 420.815 604.412 419.746 604.412 418.268V393.276C603.645 395.314 602.729 397.378 601.658 399.467C600.536 401.709 599.518 403.288 598.598 404.206C597.834 404.97 597.097 405.352 596.382 405.352C595.312 405.352 594.47 405.046 593.857 404.435C593.146 403.721 592.787 402.677 592.787 401.301C592.787 400.282 593.348 399.008 594.47 397.48C598.65 391.57 601.684 385.073 603.57 377.991H597.681C596.102 377.991 594.953 377.609 594.242 376.845C593.576 376.233 593.247 375.367 593.247 374.246C593.247 373.125 593.576 372.259 594.242 371.648C594.953 370.883 596.102 370.501 597.681 370.501H604.412V361.865C600.588 362.375 598.089 362.629 596.917 362.629C595.795 362.629 594.904 362.298 594.242 361.636C593.576 360.974 593.247 359.954 593.247 358.579C593.247 357.662 593.527 356.923 594.089 356.362L595.005 355.751C595.922 355.343 597.834 354.987 600.741 354.681C606.044 354.172 610.886 353.331 615.271 352.159C616.543 351.955 617.336 351.853 617.64 351.853C618.661 351.853 619.476 352.184 620.087 352.847C620.853 353.56 621.235 354.605 621.235 355.98C621.235 357.101 620.648 358.044 619.476 358.808C618.455 359.521 615.959 360.184 611.982 360.795V370.501H616.648C618.227 370.501 619.375 370.883 620.087 371.648C620.752 372.259 621.082 373.125 621.082 374.246C621.082 375.826 620.446 376.921 619.17 377.533C618.507 377.838 617.666 377.991 616.648 377.991H611.982V385.252C612.337 385.099 612.696 385.022 613.052 385.022C613.46 385.022 613.793 385.073 614.047 385.175C615.271 385.736 616.876 387.29 618.863 389.837C620.139 391.57 621.03 392.92 621.542 393.888C622.103 394.856 622.384 395.595 622.384 396.104C622.384 397.531 621.897 398.55 620.928 399.161C620.419 399.467 619.783 399.62 619.016 399.62C617.793 399.62 616.595 398.677 615.424 396.792C614.504 395.314 613.359 393.709 611.982 391.977V418.268ZM652.512 354.987C657.407 354.987 659.854 357.152 659.854 361.483C659.854 361.789 659.854 362.069 659.854 362.324V373.558C659.854 376.208 659.24 378.144 658.017 379.367C656.999 380.386 655.442 380.895 653.354 380.895C653.1 380.895 652.819 380.895 652.512 380.895H628.501C625.849 380.895 623.911 380.284 622.687 379.061C621.669 377.991 621.16 376.437 621.16 374.399C621.16 374.093 621.16 373.813 621.16 373.558V362.324C621.16 357.432 623.327 354.987 627.66 354.987C627.963 354.987 628.244 354.987 628.501 354.987H652.512ZM650.6 373.711C651.162 373.711 651.569 373.584 651.824 373.329C652.131 373.074 652.284 372.641 652.284 372.03V363.852C652.284 363.292 652.157 362.884 651.899 362.629C651.644 362.375 651.21 362.222 650.6 362.171H630.26C629.699 362.171 629.291 362.298 629.036 362.553C628.779 362.808 628.629 363.241 628.576 363.852V372.03C628.576 372.59 628.704 372.998 628.958 373.253C629.213 373.507 629.647 373.66 630.26 373.711H650.6ZM619.476 419.338C618.201 419.338 617.232 419.007 616.569 418.344C615.959 417.733 615.652 416.841 615.652 415.669C615.652 414.549 615.959 413.682 616.569 413.071C617.232 412.409 618.201 412.078 619.476 412.078H636.528V404.741H625.134C623.862 404.741 622.893 404.409 622.23 403.747C621.617 403.136 621.31 402.295 621.31 401.225C621.31 400.155 621.617 399.314 622.23 398.703C622.893 398.041 623.862 397.709 625.134 397.709H636.528V391.595C628.831 392.105 624.906 392.359 624.752 392.359C623.376 392.359 622.331 392.003 621.617 391.29C620.955 390.627 620.622 389.71 620.622 388.538C620.622 388.029 620.674 387.621 620.775 387.315C621.03 386.602 621.437 386.067 621.999 385.71C622.765 385.099 624.958 384.768 628.576 384.717C638.417 384.411 646.828 383.621 653.811 382.348C654.679 382.195 655.266 382.118 655.57 382.118C656.539 382.118 657.328 382.449 657.942 383.112C658.705 383.825 659.09 384.844 659.09 386.169C659.09 386.933 658.783 387.621 658.17 388.232C657.56 388.844 656.539 389.328 655.113 389.685C654.245 389.888 650.653 390.321 644.329 390.984V397.709H656.258C657.482 397.709 658.424 398.041 659.09 398.703C659.7 399.314 660.007 400.155 660.007 401.225C660.007 402.295 659.674 403.161 659.012 403.823C658.402 404.435 657.482 404.741 656.258 404.741H644.329V412.078H660.464C661.74 412.078 662.709 412.409 663.371 413.071C664.033 413.733 664.366 414.625 664.366 415.746C664.366 416.867 664.033 417.733 663.371 418.344C662.761 419.007 661.792 419.338 660.464 419.338H619.476ZM717.37 352.159C717.879 352.668 718.134 353.305 718.134 354.07C718.134 354.834 717.7 355.802 716.835 356.974H743.522C746.683 356.974 748.595 357.891 749.258 359.725C749.463 360.184 749.564 360.591 749.564 360.948C749.564 361.305 749.538 361.585 749.489 361.789C749.437 361.942 749.385 362.12 749.336 362.324C748.722 363.547 747.117 365.432 744.517 367.979C742.223 370.272 740.363 371.75 738.934 372.412C738.627 372.565 738.347 372.667 738.092 372.718C741.202 373.839 744.722 374.679 748.647 375.24C749.767 375.393 750.634 375.775 751.248 376.386C751.858 376.947 752.165 377.762 752.165 378.832C752.165 380.106 751.832 381.074 751.17 381.736C750.507 382.398 749.564 382.73 748.341 382.73H748.266L746.504 382.5C735.492 380.564 727.821 376.819 723.488 371.266C721.348 374.068 718.212 376.386 714.081 378.22C709.494 380.258 705.49 381.278 702.074 381.278C700.903 381.278 700.035 380.972 699.474 380.36C698.916 379.749 698.635 378.934 698.635 377.915C698.635 376.488 699.144 375.495 700.162 374.934C700.622 374.679 701.337 374.476 702.306 374.323C703.324 374.17 704.446 373.966 705.67 373.711C706.942 373.406 708.117 373.049 709.187 372.641C715.099 370.654 718.594 367.572 719.664 363.394H711.252C710.336 364.413 709.621 365.177 709.112 365.686C707.021 367.775 705.311 368.82 703.986 368.82C702.864 368.82 701.999 368.514 701.386 367.903C700.776 367.291 700.469 366.4 700.469 365.228C700.469 364.158 701.157 363.062 702.534 361.942C703.859 360.821 704.701 360.082 705.056 359.725C705.415 359.318 705.719 358.986 705.977 358.732C706.231 358.477 706.486 358.197 706.74 357.891C707.047 357.534 707.327 357.203 707.582 356.897C707.836 356.592 708.065 356.311 708.27 356.057C708.473 355.802 708.678 355.573 708.88 355.369C709.288 354.91 709.595 354.554 709.797 354.299C711.533 352.21 713.011 351.165 714.235 351.165C715.661 351.165 716.708 351.497 717.37 352.159ZM726.699 364.693C728.689 367.291 731.338 369.457 734.653 371.189C734.399 370.68 734.268 370.043 734.268 369.279C734.268 368.31 734.908 367.317 736.18 366.298C737.812 364.973 738.885 364.005 739.394 363.394H727.005L726.699 364.693ZM701.232 359.572C701.232 361.61 700.469 362.884 698.939 363.394C698.43 363.547 697.97 363.623 697.562 363.623C697.154 363.623 696.85 363.597 696.645 363.547C695.829 363.292 694.224 362.375 691.829 360.795L688.769 358.961C687.088 357.993 686.246 356.872 686.246 355.598C686.246 354.426 686.55 353.535 687.163 352.923C687.826 352.261 688.795 351.93 690.07 351.93C690.426 351.93 690.782 352.006 691.141 352.159C691.496 352.312 691.956 352.516 692.517 352.77C693.128 353.025 694.299 353.611 696.035 354.528C698.635 355.904 700.267 357.178 700.929 358.35C701.131 358.757 701.232 359.165 701.232 359.572ZM681.809 379.902C681.809 379.443 681.962 378.985 682.269 378.526C682.576 378.017 682.931 377.533 683.339 377.074C684.155 376.31 685.072 375.52 686.093 374.705C689.405 372.208 691.777 370.323 693.206 369.049C694.325 367.979 695.447 367.444 696.57 367.444C698.149 367.444 699.245 367.954 699.859 368.973C700.214 369.533 700.394 370.221 700.394 371.036C700.394 372.412 698.25 374.909 693.969 378.526C691.725 380.513 689.943 381.94 688.615 382.806C687.29 383.621 686.272 384.029 685.558 384.029C683.927 384.029 682.83 383.417 682.269 382.195C681.962 381.583 681.809 380.819 681.809 379.902ZM696.188 412.689C693.891 412.689 692.159 412.103 690.987 410.931C689.813 409.759 689.229 408.027 689.229 405.734C689.229 405.377 689.229 405.046 689.229 404.741V388.232C689.229 387.927 689.229 387.57 689.229 387.162C689.229 386.704 689.255 386.169 689.304 385.557C689.405 384.946 689.584 384.309 689.839 383.647C690.86 381.354 692.948 380.208 696.11 380.208C696.469 380.208 696.824 380.233 697.18 380.284H736.947C737.303 380.233 737.684 380.208 738.092 380.208C738.552 380.208 739.061 380.258 739.623 380.36C740.236 380.411 740.846 380.59 741.459 380.895C743.753 381.915 744.898 384.029 744.898 387.239C744.898 387.595 744.898 387.927 744.898 388.232V404.741C744.898 405.046 744.898 405.377 744.898 405.734C744.898 408.944 743.753 411.058 741.459 412.078C740.49 412.485 739.316 412.689 737.939 412.689C737.583 412.689 737.254 412.689 736.947 412.689H697.18C696.877 412.689 696.544 412.689 696.188 412.689ZM737.022 388.232C737.022 387.57 736.895 387.111 736.64 386.857C736.386 386.602 735.952 386.475 735.342 386.475H698.785C698.175 386.475 697.715 386.627 697.412 386.933C697.154 387.188 697.027 387.621 697.027 388.232V389.073H737.022V388.232ZM697.027 397.786H737.022V395.034H697.027V397.786ZM697.027 403.747V404.741C697.027 405.352 697.154 405.811 697.412 406.116C697.715 406.371 698.175 406.498 698.785 406.498H735.342C735.952 406.498 736.386 406.371 736.64 406.116C736.895 405.861 737.022 405.403 737.022 404.741V403.747H697.027ZM683.264 415.822C683.672 415.619 684.664 415.44 686.246 415.287C687.826 415.134 688.847 415.033 689.304 414.982C692.413 414.676 696.188 414.014 700.622 412.995L707.428 411.619H707.504C708.727 411.619 709.647 411.95 710.257 412.612C710.92 413.224 711.252 414.116 711.252 415.287C711.252 416.102 710.92 416.816 710.257 417.427C709.647 418.09 708.6 418.599 707.122 418.956C695.04 421.3 687.799 422.471 685.405 422.471C685.352 422.471 685.303 422.471 685.251 422.471C684.282 422.471 683.466 422.14 682.804 421.478C682.194 420.867 681.887 419.873 681.887 418.497C681.887 417.122 682.344 416.23 683.264 415.822ZM723.181 415.364C723.181 414.243 723.488 413.377 724.098 412.765C724.76 412.103 725.756 411.772 727.08 411.772H727.159L728.764 412.078C733.453 413.402 739.596 414.447 747.192 415.211C749.336 415.415 750.788 415.899 751.551 416.663C752.112 417.224 752.393 417.911 752.393 418.727C752.393 419.949 752.064 420.867 751.398 421.478C750.788 422.14 749.897 422.471 748.722 422.471C743.218 422.471 736.768 421.503 729.374 419.567C725.247 418.497 723.181 417.096 723.181 415.364ZM773.203 360.489C772.897 360.184 772.668 359.827 772.515 359.419C772.361 358.961 772.286 358.579 772.286 358.273C772.286 357.916 772.286 357.687 772.286 357.585C772.286 357.432 772.286 357.305 772.286 357.203C772.335 357.05 772.388 356.923 772.44 356.821C772.489 356.668 772.541 356.541 772.59 356.439C772.642 356.286 772.694 356.159 772.743 356.057C773.357 354.936 774.554 354.375 776.339 354.375H792.473C793.951 354.375 795.048 354.732 795.762 355.445C796.376 356.057 796.679 356.897 796.679 357.967C796.679 359.037 796.35 359.904 795.687 360.566C795.022 361.228 793.951 361.559 792.473 361.559H776.339C774.962 361.559 773.918 361.203 773.203 360.489ZM841.34 404.053C841.389 405.428 841.415 406.6 841.415 407.568C841.415 408.485 841.389 409.224 841.34 409.785C840.932 414.014 840.143 416.969 838.968 418.65C837.745 420.433 836.113 421.325 834.074 421.325C832.648 421.325 831.346 420.637 830.175 419.262C829.004 417.886 828.084 415.95 827.421 413.453C825.891 407.594 825.101 400.206 825.052 391.29L824.821 367.521C824.873 365.483 824.899 364.464 824.899 364.464C824.899 363.496 824.566 362.859 823.904 362.553C823.548 362.4 823.189 362.324 822.834 362.324C822.478 362.324 822.197 362.324 821.992 362.324H814.879V380.36H818.703C820.08 380.36 821.124 380.717 821.839 381.43C822.452 382.042 822.755 382.908 822.755 384.029C822.755 385.15 822.374 386.042 821.61 386.704C820.896 387.315 819.927 387.621 818.703 387.621H814.879V417.657C814.879 419.134 814.523 420.204 813.809 420.867C813.146 421.58 812.256 421.937 811.133 421.937C809.91 421.937 808.967 421.554 808.304 420.79C807.642 420.026 807.309 418.981 807.309 417.657V387.621H802.875C801.446 387.621 800.376 387.264 799.661 386.551C799.051 385.939 798.744 385.073 798.744 383.953C798.744 382.882 799.077 382.016 799.74 381.354C800.402 380.692 801.446 380.36 802.875 380.36H807.309V362.324H800.963C799.381 362.273 798.209 361.891 797.446 361.177C796.832 360.566 796.526 359.725 796.526 358.655C796.526 357.127 797.165 356.057 798.438 355.445C799.1 355.14 799.942 354.987 800.963 354.987H824.286C827.242 354.987 829.434 355.7 830.863 357.127C832.035 358.299 832.622 359.929 832.622 362.018C832.622 362.069 832.596 362.578 832.544 363.547L832.697 394.805C832.801 403.62 833.359 408.969 834.381 410.855L834.534 409.937C834.635 408.613 834.714 406.142 834.762 402.524C834.762 401.454 835.043 400.613 835.604 400.002C836.214 399.442 837.007 399.161 837.976 399.161C839.35 399.161 840.319 399.671 840.88 400.69C841.135 401.199 841.262 401.836 841.262 402.601C841.262 403.263 841.288 403.747 841.34 404.053ZM798.134 365.686C798.797 366.349 799.126 367.215 799.126 368.285C799.126 369.355 798.797 370.221 798.134 370.883C797.469 371.546 796.398 371.877 794.92 371.877H773.892C771.647 371.877 770.322 371.062 769.914 369.431C769.813 369.075 769.761 368.693 769.761 368.285C769.761 366.756 770.374 365.712 771.598 365.151C772.208 364.846 772.975 364.693 773.892 364.693H794.92C796.398 364.693 797.469 365.024 798.134 365.686ZM796.297 378.45C796.297 379.469 795.968 380.309 795.302 380.972C794.692 381.583 793.671 381.889 792.245 381.889H776.492C774.707 381.889 773.51 381.303 772.897 380.131C772.642 379.622 772.515 379.036 772.515 378.373C772.515 376.896 773.102 375.902 774.273 375.393C774.887 375.087 775.624 374.934 776.492 374.934H792.245C793.622 374.934 794.666 375.291 795.38 376.004C795.991 376.615 796.297 377.431 796.297 378.45ZM796.297 388.614C796.297 389.633 795.968 390.474 795.302 391.137C794.692 391.748 793.671 392.054 792.245 392.054H776.645C775.167 392.054 774.094 391.697 773.432 390.984C772.822 390.423 772.515 389.633 772.515 388.614C772.515 387.544 772.822 386.704 773.432 386.092C774.094 385.43 775.115 385.099 776.492 385.099H792.245C793.622 385.099 794.666 385.456 795.38 386.169C795.991 386.78 796.297 387.595 796.297 388.614ZM796.297 402.065V413.912C796.297 416.969 795.227 419.032 793.087 420.102C792.017 420.612 790.715 420.867 789.184 420.867H779.703C777.357 420.867 775.575 420.255 774.352 419.032C773.177 417.86 772.59 416.205 772.59 414.064V402.065C772.59 399.06 773.663 397.022 775.804 395.951C776.874 395.442 778.172 395.187 779.703 395.187H789.184C791.53 395.187 793.289 395.799 794.464 397.022C795.687 398.193 796.297 399.875 796.297 402.065ZM789.109 403.059C789.109 402.651 789.008 402.371 788.803 402.218C788.649 402.015 788.369 401.913 787.961 401.913H780.926C780.518 401.913 780.264 401.964 780.163 402.065C779.908 402.32 779.781 402.651 779.781 403.059V412.918C779.781 413.377 779.882 413.708 780.084 413.912C780.238 414.064 780.518 414.141 780.926 414.141H787.961C788.369 414.141 788.649 414.064 788.803 413.912C789.008 413.708 789.109 413.377 789.109 412.918V403.059ZM869.948 419.72C868.826 419.72 867.73 419.567 866.66 419.262C865.589 418.956 864.673 418.421 863.909 417.657C862.532 416.332 861.844 414.37 861.844 411.772C861.844 411.415 861.87 411.058 861.919 410.702V362.859C861.919 362.553 861.919 362.222 861.919 361.865C861.919 359.267 862.607 357.28 863.984 355.904C865.361 354.528 867.426 353.84 870.177 353.84C870.435 353.84 870.715 353.84 871.019 353.84H925.237C926.868 353.84 928.069 354.222 928.832 354.987C929.495 355.649 929.827 356.566 929.827 357.738C929.827 358.859 929.495 359.751 928.832 360.413C928.069 361.177 926.868 361.559 925.237 361.559H872.856C871.939 361.559 871.25 361.789 870.79 362.247C870.382 362.655 870.177 363.343 870.177 364.311V409.25C870.177 410.269 870.409 410.982 870.865 411.39C871.224 411.797 871.834 412.001 872.702 412.001C872.754 412.001 872.803 412.001 872.856 412.001H925.85C927.38 412.001 928.499 412.358 929.214 413.071C929.929 413.784 930.284 414.701 930.284 415.822C930.284 416.994 929.955 417.886 929.292 418.497C928.578 419.262 927.429 419.644 925.85 419.644H871.019C870.663 419.695 870.307 419.72 869.948 419.72ZM916.903 364.311C916.903 365.177 916.189 366.782 914.763 369.126H924.551C925.775 369.126 926.692 369.431 927.302 370.043C927.915 370.654 928.222 371.444 928.222 372.412C928.222 373.38 927.915 374.17 927.302 374.781C926.692 375.393 925.775 375.698 924.551 375.698H913.843V379.978H923.175C924.346 379.978 925.214 380.284 925.775 380.895C926.385 381.456 926.692 382.195 926.692 383.112C926.692 384.029 926.411 384.768 925.85 385.328C925.237 385.939 924.346 386.245 923.175 386.245H913.843V390.831H923.175C924.346 390.831 925.214 391.137 925.775 391.748C926.385 392.308 926.692 393.047 926.692 393.964C926.692 395.34 926.157 396.283 925.087 396.792C924.574 397.047 923.938 397.174 923.175 397.174H913.843V402.448H925.925C927.149 402.448 928.069 402.753 928.679 403.365C929.292 403.976 929.596 404.766 929.596 405.734C929.596 406.702 929.315 407.492 928.757 408.103C928.092 408.715 927.149 409.02 925.925 409.02H896.025C893.832 409.02 892.152 408.46 890.977 407.339C889.858 406.167 889.297 404.46 889.297 402.218V380.208C887.46 382.449 885.956 383.57 884.784 383.57C883.714 383.57 882.899 383.29 882.337 382.73C881.727 382.118 881.421 381.252 881.421 380.131C881.421 379.265 881.929 378.271 882.951 377.15C886.262 373.737 889.271 369.38 891.972 364.082C892.994 362.145 894.217 361.177 895.643 361.177C896.919 361.177 897.862 361.483 898.472 362.094C899.033 362.655 899.314 363.394 899.314 364.311C899.314 365.075 898.55 366.68 897.02 369.126H907.115L909.484 363.929C910.352 362.145 911.601 361.254 913.233 361.254C915.119 361.254 916.264 361.891 916.672 363.164C916.825 363.521 916.903 363.903 916.903 364.311ZM875.531 365.839C875.531 363.954 876.321 362.808 877.903 362.4C878.311 362.298 878.719 362.247 879.127 362.247C880.197 362.247 881.727 362.986 883.714 364.464C885.956 366.043 887.078 367.521 887.078 368.896C887.078 370.017 886.771 370.909 886.161 371.571C885.499 372.183 884.582 372.488 883.408 372.488C882.543 372.488 881.548 372.03 880.425 371.113L878.207 369.431C877.342 368.769 876.755 368.234 876.448 367.826C875.838 367.113 875.531 366.451 875.531 365.839ZM906.962 379.978V375.698H896.945C896.739 375.698 896.612 375.724 896.56 375.775C896.511 375.826 896.485 375.979 896.485 376.233V379.978H906.962ZM869.873 378.526C869.873 377.303 870.177 376.386 870.79 375.775C871.453 375.112 872.347 374.781 873.466 374.781C874.64 374.781 876.425 375.673 878.82 377.456C880.504 378.628 881.342 379.851 881.342 381.125C881.342 382.398 881.013 383.367 880.35 384.029C879.737 384.64 878.846 384.946 877.672 384.946C877.264 384.946 876.755 384.768 876.145 384.411C875.123 383.851 874.334 383.341 873.772 382.882C872.601 382.169 871.707 381.507 871.097 380.895C870.281 380.08 869.873 379.29 869.873 378.526ZM896.485 390.831H906.962V386.245H896.485V390.831ZM872.474 405.734C872.474 405.122 872.755 404.282 873.312 403.212C875.202 400.002 877.368 395.773 879.815 390.525C880.631 388.844 881.802 388.003 883.332 388.003C885.013 388.003 886.109 388.538 886.621 389.608C886.876 390.067 887.003 390.602 887.003 391.213C887.003 391.773 886.899 392.359 886.696 392.971C886.442 393.837 886.135 394.678 885.78 395.493C884.859 397.888 883.332 401.174 881.189 405.352C880.478 406.727 879.737 407.797 878.973 408.562C878.259 409.275 877.469 409.632 876.601 409.632C875.224 409.632 874.18 409.301 873.466 408.638C872.803 407.925 872.474 406.957 872.474 405.734ZM906.962 402.448V397.174H896.485V400.996C896.485 401.454 896.586 401.811 896.792 402.065C897.046 402.269 897.428 402.397 897.937 402.448H906.962ZM996.212 371.495C996.212 369.253 997.41 368.132 999.808 368.132C1000.32 368.132 1001.16 368.514 1002.33 369.279C1003.5 370.043 1005.16 371.342 1007.3 373.176C1011.13 376.386 1013.72 378.755 1015.1 380.284C1015.87 381.048 1016.43 381.736 1016.78 382.348C1017.14 382.959 1017.32 383.545 1017.32 384.105C1017.32 385.328 1016.99 386.271 1016.32 386.933C1015.61 387.647 1014.59 388.003 1013.27 388.003C1012.04 388.003 1010.16 386.627 1007.61 383.876L1005.85 381.965L969.141 385.481C968.939 385.481 968.733 385.481 968.531 385.481C967.408 385.481 966.491 385.15 965.777 384.487C965.062 383.774 964.707 382.781 964.707 381.507C964.707 380.539 965.039 379.749 965.702 379.138C966.671 378.119 968.377 377.584 970.824 377.533L975.947 377.227C977.937 373.406 979.543 370.017 980.766 367.062H970.518C968.991 367.062 967.868 366.68 967.154 365.916C966.491 365.304 966.159 364.438 966.159 363.317C966.159 362.196 966.491 361.305 967.154 360.642C967.917 359.878 969.04 359.496 970.518 359.496H985.889V355.292C985.889 353.56 986.45 352.363 987.572 351.7C988.235 351.293 988.949 351.089 989.713 351.089C990.528 351.089 991.191 351.191 991.7 351.395C992.261 351.548 992.721 351.802 993.077 352.159C993.791 352.872 994.147 353.917 994.147 355.292V359.496H1013.5C1016.1 359.496 1017.55 360.515 1017.85 362.553C1017.91 362.808 1017.93 363.062 1017.93 363.317C1017.93 364.438 1017.6 365.304 1016.94 365.916C1016.22 366.68 1015.08 367.062 1013.5 367.062H989.791L986.042 373.788L984.665 376.004L984.208 376.845L999.426 375.851L997.971 374.476C996.8 373.304 996.212 372.31 996.212 371.495ZM956.217 352.618C956.576 352.618 956.958 352.719 957.365 352.923C957.825 353.076 958.409 353.305 959.124 353.611C959.888 353.917 961.392 354.656 963.637 355.827C965.829 356.948 966.925 358.451 966.925 360.337C966.925 361.763 966.566 362.833 965.855 363.547C965.19 364.209 964.273 364.54 963.101 364.54C961.979 364.54 960.628 364.082 959.049 363.164L955.225 361.024C952.931 359.802 951.783 358.451 951.783 356.974C951.783 354.07 953.261 352.618 956.217 352.618ZM948.19 376.463C948.19 375.087 948.546 374.042 949.261 373.329C950.024 372.565 951.147 372.183 952.625 372.183C953.287 372.183 954.103 372.361 955.072 372.718C956.09 373.074 957.163 373.533 958.282 374.093C959.457 374.654 960.295 375.112 960.808 375.469C961.369 375.826 961.8 376.182 962.106 376.539C962.465 376.896 962.742 377.227 962.948 377.533C963.408 378.195 963.637 378.883 963.637 379.596C963.637 381.023 963.281 382.118 962.566 382.882C961.852 383.545 960.883 383.876 959.659 383.876H959.584L958.664 383.723L953.541 381.43C951.603 380.564 950.23 379.724 949.414 378.908C948.598 378.093 948.19 377.278 948.19 376.463ZM998.813 389.99C998.813 388.614 999.172 387.57 999.883 386.857C1000.55 386.194 1001.44 385.863 1002.56 385.863C1003.73 385.863 1004.65 386.194 1005.31 386.857C1006.03 387.57 1006.38 388.614 1006.38 389.99V411.313C1006.38 411.67 1006.49 411.95 1006.69 412.154C1007 412.459 1007.5 412.612 1008.22 412.612C1009.5 412.612 1010.23 412.459 1010.44 412.154C1010.64 411.542 1010.82 409.81 1010.97 406.957C1011.02 405.632 1011.38 404.639 1012.04 403.976C1012.71 403.314 1013.57 402.983 1014.64 402.983C1016.22 402.983 1017.29 403.569 1017.85 404.741C1018.16 405.352 1018.31 406.167 1018.31 407.186C1018.31 408.205 1018.29 409.199 1018.24 410.167C1018.19 411.135 1018.08 412.052 1017.93 412.918C1017.78 413.784 1017.6 414.549 1017.39 415.211C1016.78 417.249 1015.84 418.599 1014.57 419.262C1013.24 419.975 1010.97 420.332 1007.76 420.332C1003.79 420.332 1001.26 419.796 1000.19 418.727C999.374 417.911 998.914 416.663 998.813 414.982V414.905V389.99ZM963.79 413.377C968.837 409.861 971.36 404.078 971.36 396.028C971.258 391.799 971.206 389.659 971.206 389.608C971.206 388.487 971.539 387.595 972.201 386.933C972.864 386.271 973.833 385.939 975.108 385.939C977.859 385.939 979.236 387.621 979.236 390.984C979.236 397.047 978.753 402.117 977.784 406.193C976.867 410.218 975.03 413.759 972.276 416.816C969.526 420.026 967.18 421.631 965.242 421.631C963.966 421.631 962.974 421.274 962.26 420.561C961.545 419.848 961.189 418.752 961.189 417.274C961.189 415.848 962.057 414.549 963.79 413.377ZM984.744 414.752V390.067C984.744 388.691 985.073 387.672 985.735 387.009C986.45 386.296 987.393 385.939 988.568 385.939C989.739 385.939 990.656 386.296 991.318 387.009C992.033 387.672 992.388 388.691 992.388 390.067V414.752C992.388 416.128 992.033 417.172 991.318 417.886C990.656 418.548 989.739 418.879 988.568 418.879C987.393 418.879 986.45 418.523 985.735 417.81C985.073 417.147 984.744 416.128 984.744 414.752ZM948.494 417.045C948.494 416.383 949.107 414.701 950.331 412.001L955.988 396.257C956.497 394.78 957.085 393.709 957.747 393.047C958.409 392.385 959.303 392.054 960.426 392.054C961.545 392.054 962.413 392.385 963.023 393.047C963.689 393.659 964.018 394.55 964.018 395.722C964.018 397.964 962.08 404.18 958.207 414.37C957.186 417.122 956.168 418.981 955.147 419.949C954.435 420.714 953.643 421.096 952.778 421.096C951.349 421.096 950.279 420.739 949.564 420.026C948.853 419.312 948.494 418.319 948.494 417.045ZM1036.75 393.276V387.392C1036.75 384.895 1037.31 383.086 1038.44 381.965C1039.41 380.997 1040.86 380.488 1042.8 380.437H1042.95C1041.93 366.323 1041.42 359.088 1041.42 358.732C1041.42 358.375 1041.49 357.891 1041.65 357.28C1041.85 356.464 1042.31 355.726 1043.02 355.063C1043.74 354.35 1044.71 353.866 1045.93 353.611L1053.81 352.312C1055.59 351.853 1056.68 351.573 1057.09 351.471C1057.55 351.369 1057.91 351.318 1058.17 351.318C1058.42 351.318 1058.62 351.344 1058.78 351.395C1058.93 351.395 1059.08 351.42 1059.24 351.471C1059.44 351.471 1059.59 351.522 1059.69 351.624C1060.87 352.133 1061.45 353.203 1061.45 354.834C1061.45 356.057 1060.56 356.999 1058.78 357.662C1057.3 358.222 1054.83 358.706 1051.36 359.114C1050.03 359.318 1049.27 359.674 1049.06 360.184C1049.06 360.235 1049.06 360.311 1049.06 360.413C1049.06 360.464 1049.09 360.999 1049.14 362.018H1057.63C1058.9 362.018 1059.85 362.324 1060.46 362.935C1061.02 363.496 1061.3 364.26 1061.3 365.228C1061.3 366.196 1061 366.986 1060.38 367.597C1059.82 368.158 1058.9 368.438 1057.63 368.438H1049.6L1049.75 370.96H1057.63C1058.85 370.96 1059.8 371.266 1060.46 371.877C1061.02 372.488 1061.3 373.278 1061.3 374.246C1061.3 375.214 1061.02 375.979 1060.46 376.539C1059.85 377.15 1058.9 377.456 1057.63 377.456H1050.21L1050.36 380.437H1091.97L1092.12 377.456H1083.86C1082.74 377.456 1081.87 377.176 1081.26 376.615C1080.7 376.004 1080.42 375.214 1080.42 374.246C1080.42 373.227 1080.7 372.437 1081.26 371.877C1081.87 371.266 1082.74 370.96 1083.86 370.96H1092.58L1092.73 368.438H1083.86C1082.69 368.438 1081.82 368.158 1081.26 367.597C1080.7 367.037 1080.42 366.247 1080.42 365.228C1080.42 364.26 1080.7 363.496 1081.26 362.935C1081.87 362.324 1082.74 362.018 1083.86 362.018H1093.26V361.254C1093.26 360.591 1093.19 360.184 1093.04 360.031C1092.88 359.878 1092.53 359.802 1091.97 359.802H1083.17C1082.1 359.802 1081.28 359.521 1080.73 358.961C1080.16 358.4 1079.88 357.636 1079.88 356.668C1079.88 355.649 1080.14 354.885 1080.65 354.375C1081.21 353.815 1082.05 353.535 1083.17 353.535H1094.03C1097.55 353.535 1099.71 354.656 1100.53 356.897C1100.73 357.509 1100.84 358.197 1100.84 358.961C1100.84 359.012 1100.32 366.171 1099.31 380.437C1101.19 380.437 1102.64 380.946 1103.67 381.965C1104.68 382.984 1105.2 384.487 1105.2 386.475C1105.2 386.78 1105.2 387.086 1105.2 387.392V393.582C1105.2 395.111 1104.84 396.232 1104.12 396.945C1103.41 397.658 1102.47 398.015 1101.29 398.015C1099.66 398.015 1098.54 397.429 1097.93 396.257C1097.57 395.595 1097.39 394.703 1097.39 393.582V388.844C1097.39 388.283 1097.27 387.876 1097.01 387.621C1096.76 387.366 1096.32 387.213 1095.71 387.162H1046.39C1045.78 387.162 1045.34 387.315 1045.09 387.621C1044.83 387.876 1044.68 388.283 1044.63 388.844V393.353C1044.63 394.881 1044.25 396.028 1043.48 396.792C1042.82 397.455 1041.9 397.786 1040.73 397.786C1039.56 397.786 1038.59 397.429 1037.82 396.716C1037.11 395.951 1036.75 394.805 1036.75 393.276ZM1076.13 359.037C1078.43 360.719 1079.58 362.196 1079.58 363.47C1079.58 364.744 1079.12 365.661 1078.2 366.221C1077.74 366.527 1077.2 366.68 1076.59 366.68C1075.98 366.68 1075.42 366.553 1074.91 366.298C1074.4 365.992 1073.84 365.559 1073.23 364.999L1071.09 362.935C1067.82 365.534 1065.53 366.96 1064.21 367.215C1064 367.266 1063.72 367.291 1063.36 367.291C1063.06 367.291 1062.7 367.24 1062.29 367.139C1061.94 366.986 1061.61 366.782 1061.3 366.527C1060.79 365.967 1060.54 365.202 1060.54 364.234C1060.54 363.623 1060.89 362.961 1061.61 362.247C1062.37 361.534 1063.67 360.617 1065.51 359.496L1065.96 359.267C1064.59 358.248 1063.64 357.509 1063.14 357.05C1062.68 356.541 1062.37 356.184 1062.22 355.98C1062.01 355.573 1061.91 355.241 1061.91 354.987C1061.91 354.121 1062.19 353.433 1062.75 352.923C1063.31 352.414 1064.05 352.159 1064.97 352.159C1065.38 352.159 1065.94 352.363 1066.65 352.77C1067.88 353.433 1069.33 354.35 1071.01 355.522L1073.08 353.382C1074.15 352.261 1075.19 351.7 1076.21 351.7C1077.23 351.7 1078.02 351.981 1078.58 352.541C1079.09 353.051 1079.35 353.713 1079.35 354.528C1079.35 355.547 1078.28 357.05 1076.13 359.037ZM1060.76 378.45C1060.76 377.533 1061.66 376.488 1063.44 375.316C1064.1 374.858 1064.95 374.323 1065.96 373.711L1066.35 373.558C1065.02 372.641 1064.03 371.877 1063.36 371.266C1062.7 370.603 1062.37 369.992 1062.37 369.431C1062.37 368.565 1062.63 367.877 1063.14 367.368C1063.64 366.858 1064.41 366.604 1065.43 366.604C1066.04 366.604 1067.03 367.037 1068.41 367.903L1070.78 369.279L1071.47 369.737L1073.08 368.209C1074.45 366.935 1075.55 366.298 1076.37 366.298C1077.44 366.298 1078.23 366.578 1078.73 367.139C1079.3 367.648 1079.58 368.336 1079.58 369.202C1079.58 369.864 1079.24 370.603 1078.58 371.418C1078.07 371.979 1077.41 372.59 1076.59 373.253C1078.43 374.577 1079.63 375.724 1080.19 376.692C1080.44 377.049 1080.57 377.456 1080.57 377.915C1080.57 378.934 1080.29 379.724 1079.73 380.284C1079.17 380.844 1078.41 381.125 1077.44 381.125C1076.98 381.125 1076.49 380.997 1075.98 380.743C1075.47 380.437 1074.91 380.004 1074.3 379.443L1071.55 377.15C1067.78 380.004 1065.2 381.43 1063.82 381.43C1062.5 381.43 1061.58 380.946 1061.07 379.978C1060.87 379.571 1060.76 379.061 1060.76 378.45ZM1061.22 422.471C1058.22 422.471 1056.71 421.223 1056.71 418.727C1056.71 417.657 1057.02 416.816 1057.63 416.205C1058.39 415.44 1059.59 415.058 1061.22 415.058H1064.28C1065 415.058 1065.51 414.88 1065.81 414.523C1066.17 414.217 1066.37 413.682 1066.42 412.918V409.555H1039.73C1038.41 409.555 1037.39 409.224 1036.68 408.562C1036.12 407.95 1035.84 407.161 1035.84 406.193C1035.84 405.225 1036.14 404.435 1036.75 403.823C1037.41 403.161 1038.41 402.83 1039.73 402.83H1066.42V401.531C1066.42 400.053 1066.99 398.983 1068.1 398.321C1069.02 397.76 1071.14 397.072 1074.45 396.257L1076.67 395.722H1048.83C1047.51 395.722 1046.54 395.417 1045.93 394.805C1045.32 394.194 1045.01 393.404 1045.01 392.436C1045.01 391.417 1045.32 390.627 1045.93 390.067C1046.59 389.506 1047.56 389.226 1048.83 389.226H1089.75C1092.76 389.226 1094.77 389.735 1095.79 390.754C1096.3 391.264 1096.55 391.901 1096.55 392.665C1096.55 393.123 1096.32 393.582 1095.86 394.041C1094.49 395.417 1090.66 397.149 1084.4 399.238C1081.9 400.053 1079.78 400.715 1078.05 401.225C1076.37 401.683 1075.42 401.964 1075.22 402.065C1075.02 402.117 1074.84 402.193 1074.68 402.295C1074.43 402.448 1074.25 402.626 1074.15 402.83H1102.29C1103.67 402.83 1104.66 403.161 1105.27 403.823C1105.93 404.435 1106.27 405.225 1106.27 406.193C1106.27 407.161 1105.99 407.95 1105.42 408.562C1104.71 409.224 1103.67 409.555 1102.29 409.555H1074.07V414.141C1074.07 419.185 1072.13 421.962 1068.26 422.471C1067.85 422.522 1067.44 422.548 1067.03 422.548C1066.63 422.548 1066.24 422.522 1065.89 422.471H1061.22ZM1193.68 372.565C1193.68 375.418 1192.43 376.845 1189.93 376.845C1188.81 376.845 1187.9 376.514 1187.18 375.851C1186.52 375.138 1186.19 374.042 1186.19 372.565V368.285C1186.19 367.674 1186.06 367.24 1185.81 366.986C1185.55 366.68 1185.12 366.527 1184.51 366.527H1157.74C1157.13 366.527 1156.67 366.68 1156.36 366.986C1156.11 367.24 1155.98 367.674 1155.98 368.285V372.794C1155.98 374.17 1155.65 375.189 1154.99 375.851C1154.32 376.514 1153.46 376.845 1152.39 376.845C1151.32 376.845 1150.47 376.539 1149.86 375.928C1149.15 375.214 1148.79 374.17 1148.79 372.794V366.833C1148.79 364.082 1149.4 362.094 1150.63 360.872C1151.7 359.853 1153.28 359.343 1155.37 359.343C1155.63 359.343 1155.9 359.343 1156.21 359.343H1166.38V355.98C1166.38 354.248 1166.79 352.974 1167.6 352.159C1168.32 351.446 1169.26 351.089 1170.44 351.089C1171.66 351.089 1172.63 351.446 1173.34 352.159C1174.16 352.974 1174.56 354.248 1174.56 355.98V359.343H1186.26C1188.92 359.343 1190.88 359.954 1192.15 361.177C1193.22 362.247 1193.76 363.776 1193.76 365.763C1193.76 366.12 1193.73 366.476 1193.68 366.833V372.565ZM1146.73 404.435C1144.84 406.32 1142.11 407.263 1138.55 407.263C1136.81 407.263 1135.59 406.702 1134.87 405.581V418.192C1134.87 419.669 1134.52 420.765 1133.8 421.478C1133.09 422.191 1132.17 422.548 1131.05 422.548C1129.93 422.548 1129.01 422.191 1128.3 421.478C1127.63 420.815 1127.31 419.72 1127.31 418.192V361.636C1127.31 358.935 1127.97 356.948 1129.29 355.675C1130.47 354.503 1132.2 353.917 1134.49 353.917C1134.65 353.917 1134.83 353.917 1135.03 353.917H1143.21C1147.08 353.917 1149.43 354.987 1150.25 357.127C1150.45 357.687 1150.55 358.222 1150.55 358.732C1150.55 359.19 1150.5 359.649 1150.4 360.107C1149.99 362.4 1148.31 367.088 1145.35 374.17C1144.28 376.768 1143.75 378.424 1143.75 379.138C1143.75 379.29 1143.87 379.647 1144.13 380.208C1144.43 380.717 1145 381.481 1145.81 382.5C1148.51 386.016 1149.86 390.143 1149.86 394.881C1149.86 399.161 1148.82 402.346 1146.73 404.435ZM1140.92 398.244C1141.83 397.633 1142.29 396.13 1142.29 393.735C1142.29 392.003 1142.01 390.321 1141.45 388.691C1140.94 387.061 1140.15 385.557 1139.08 384.182C1138.26 383.061 1137.63 382.093 1137.17 381.278C1136.76 380.411 1136.56 379.622 1136.56 378.908C1136.56 377.991 1137.12 376.055 1138.24 373.1C1139.36 370.145 1140.02 368.31 1140.23 367.597L1141.53 363.776C1141.73 362.961 1141.83 362.451 1141.83 362.247C1141.83 361.993 1141.78 361.84 1141.68 361.789C1141.53 361.585 1141.15 361.483 1140.54 361.483H1136.56C1136 361.483 1135.59 361.61 1135.33 361.865C1135.08 362.12 1134.93 362.528 1134.87 363.088V400.308C1135.13 399.951 1135.44 399.671 1135.79 399.467C1136.15 399.161 1137.5 398.856 1139.85 398.55C1140.26 398.499 1140.61 398.397 1140.92 398.244ZM1155.83 379.902C1155.22 379.239 1154.91 378.348 1154.91 377.227C1154.91 376.106 1155.22 375.24 1155.83 374.628C1156.49 373.966 1157.49 373.635 1158.81 373.635H1183.66C1184.99 373.635 1185.98 373.966 1186.65 374.628C1187.31 375.291 1187.64 376.157 1187.64 377.227C1187.64 378.297 1187.31 379.163 1186.65 379.825C1185.98 380.488 1184.99 380.819 1183.66 380.819H1158.81C1157.49 380.819 1156.49 380.513 1155.83 379.902ZM1144.13 417.962C1144.13 416.179 1145.28 414.803 1147.57 413.835C1151.5 412.205 1154.45 409.887 1156.44 406.88C1158.12 404.333 1159.07 400.104 1159.27 394.194H1153.31C1151.82 394.194 1150.75 393.862 1150.09 393.2C1149.43 392.538 1149.1 391.697 1149.1 390.678C1149.1 389.608 1149.4 388.767 1150.02 388.156C1150.73 387.443 1151.82 387.086 1153.31 387.086H1189.93C1192.13 387.086 1193.48 387.825 1193.99 389.302C1194.14 389.71 1194.22 390.168 1194.22 390.678C1194.22 391.697 1193.91 392.512 1193.3 393.123C1192.59 393.837 1191.46 394.194 1189.93 394.194H1179.92V411.466C1179.92 412.281 1180.27 412.842 1180.99 413.147C1181.5 413.402 1182.24 413.53 1183.21 413.53C1185.35 413.53 1186.6 413.351 1186.95 412.995C1187.31 412.638 1187.51 411.95 1187.57 410.931C1187.67 409.861 1187.79 409.02 1187.95 408.409C1188.15 407.747 1188.4 407.212 1188.71 406.804L1189.02 406.422C1189.68 405.759 1190.6 405.428 1191.77 405.428C1192.94 405.428 1193.86 405.759 1194.52 406.422C1195.14 407.033 1195.44 407.874 1195.44 408.944C1195.44 413.733 1194.47 417.02 1192.53 418.803C1191.16 420.077 1187.9 420.714 1182.75 420.714C1182.75 420.714 1181.27 420.663 1178.31 420.561C1176.37 420.459 1174.9 419.898 1173.87 418.879C1172.91 417.911 1172.4 416.561 1172.35 414.829V394.194H1167.07C1166.77 399.391 1165.9 403.849 1164.47 407.568C1163.09 411.237 1160.57 414.574 1156.9 417.58C1153.18 420.535 1150.22 422.013 1148.03 422.013C1146.8 422.013 1145.84 421.656 1145.12 420.943C1144.46 420.281 1144.13 419.287 1144.13 417.962Z" fill="white"/>
<path fill-rule="evenodd" clip-rule="evenodd" d="M142.998 208.655L-3.11083 181.175C-7.0471 180.434 -10.8457 183.065 -11.5952 187.05L-48.9163 385.481C-49.6658 389.466 -47.0824 393.297 -43.1462 394.037L102.963 421.518C106.899 422.258 110.697 419.628 111.447 415.642L148.768 217.211C149.518 213.226 146.934 209.395 142.998 208.655ZM-1.07513 170.351C-10.9158 168.5 -20.4123 175.076 -22.2861 185.039L-59.6072 383.47C-61.481 393.433 -55.0225 403.01 -45.1819 404.861L100.927 432.341C110.768 434.192 120.264 427.616 122.138 417.653L159.459 219.222C161.333 209.259 154.874 199.682 145.034 197.831L-1.07513 170.351Z" fill="white"/>
<path fill-rule="evenodd" clip-rule="evenodd" d="M88.9534 193.354L85.5334 192.711L84.8357 196.421L82.3935 209.405L74.1028 253.486C73.5841 256.244 75.9221 258.541 78.428 257.735L93.9012 252.76C94.9622 252.419 96.0955 252.632 96.96 253.336L109.568 263.592C111.61 265.253 114.623 263.963 115.142 261.205L123.433 217.124L125.875 204.139L126.573 200.429L123.153 199.786L88.9534 193.354Z" fill="white"/>
<path fill-rule="evenodd" clip-rule="evenodd" d="M-26.7206 402.263L15.1808 179.479L26.9063 181.684L-14.9951 404.468L-26.7206 402.263Z" fill="white"/>
<path d="M38.6294 280.722C39.2094 277.638 42.3044 275.632 45.5423 276.241V276.241C48.7802 276.85 50.9349 279.844 50.3549 282.927L46.9419 301.074C46.3619 304.158 43.2669 306.164 40.029 305.555V305.555C36.7911 304.946 34.6364 301.952 35.2164 298.868L38.6294 280.722Z" fill="white"/>
<path d="M85.5313 289.543C86.1112 286.46 89.2063 284.453 92.4442 285.062V285.062C95.6821 285.671 97.8367 288.665 97.2567 291.749L93.8437 309.895C93.2637 312.979 90.1687 314.985 86.9308 314.376V314.376C83.6929 313.767 81.5383 310.774 82.1182 307.69L85.5313 289.543Z" fill="white"/>
<path fill-rule="evenodd" clip-rule="evenodd" d="M68.0779 333.93C69.1606 328.174 66.101 322.767 61.2441 321.854C56.3873 320.94 51.5724 324.866 50.4897 330.622L50.4853 330.646L48.0394 343.651L65.6276 346.959L68.0779 333.93Z" fill="white"/>
<path fill-rule="evenodd" clip-rule="evenodd" d="M1392.55 361.73L1254.57 398.702C1250.85 399.698 1248.65 403.557 1249.66 407.32L1299.87 594.713C1300.88 598.477 1304.71 600.72 1308.43 599.724L1446.41 562.752C1450.13 561.756 1452.32 557.898 1451.32 554.134L1401.1 366.741C1400.1 362.978 1396.26 360.734 1392.55 361.73ZM1251.83 388.481C1242.53 390.971 1237.04 400.617 1239.56 410.025L1289.78 597.419C1292.3 606.827 1301.88 612.436 1311.17 609.946L1449.15 572.974C1458.44 570.484 1463.93 560.838 1461.41 551.429L1411.2 364.036C1408.68 354.627 1399.1 349.019 1389.81 351.509L1251.83 388.481Z" fill="white"/>
<path fill-rule="evenodd" clip-rule="evenodd" d="M1329.12 367.769L1378.95 354.418L1395.87 417.555C1397.63 424.117 1392.27 430.126 1385.97 428.671L1371.23 425.273L1360.17 435.582C1355.44 439.996 1347.8 437.469 1346.04 430.907L1329.12 367.769ZM1341.93 375.692L1355.24 425.38L1364.88 416.399C1366.88 414.53 1369.63 413.793 1372.3 414.409L1385.14 417.369L1371.82 367.68L1341.93 375.692Z" fill="white"/>
<path fill-rule="evenodd" clip-rule="evenodd" d="M1326.08 600.016L1269.7 389.625L1280.78 386.658L1337.15 597.049L1326.08 600.016Z" fill="white"/>
<path d="M1332.13 467.562C1331.35 464.65 1333.19 461.625 1336.25 460.806V460.806C1339.31 459.986 1342.42 461.683 1343.2 464.595L1347.79 481.732C1348.57 484.645 1346.72 487.67 1343.67 488.489V488.489C1340.61 489.308 1337.5 487.612 1336.72 484.699L1332.13 467.562Z" fill="white"/>
<path d="M1376.42 455.694C1375.64 452.782 1377.48 449.757 1380.54 448.938V448.938C1383.6 448.118 1386.71 449.815 1387.49 452.727L1392.08 469.864C1392.86 472.776 1391.02 475.801 1387.96 476.621V476.621C1384.9 477.44 1381.79 475.743 1381.01 472.831L1376.42 455.694Z" fill="white"/>
<path fill-rule="evenodd" clip-rule="evenodd" d="M1379.72 501.246C1378.27 495.81 1373.37 492.399 1368.78 493.628C1364.19 494.857 1361.66 500.26 1363.11 505.696C1363.12 505.704 1363.12 505.712 1363.12 505.719L1366.41 518L1383.02 513.549L1379.72 501.246L1379.72 501.246Z" fill="white"/>
<path fill-rule="evenodd" clip-rule="evenodd" d="M238.795 807.658L352.585 860.557C355.651 861.982 359.306 860.621 360.748 857.517L432.59 702.979C434.033 699.875 432.717 696.204 429.651 694.779L315.862 641.88C312.796 640.455 309.141 641.816 307.698 644.92L235.857 799.458C234.414 802.562 235.73 806.233 238.795 807.658ZM348.667 868.986C356.331 872.549 365.468 869.147 369.075 861.388L440.916 706.849C444.523 699.09 441.234 689.912 433.57 686.349L319.78 633.451C312.116 629.888 302.979 633.29 299.372 641.049L227.531 795.588C223.924 803.347 227.213 812.525 234.877 816.088L348.667 868.986Z" fill="white"/>
<path fill-rule="evenodd" clip-rule="evenodd" d="M284.923 839.353L243.83 820.25L268.035 768.182C270.551 762.77 277.545 761.742 280.973 766.279L288.981 776.874L302.243 776.166C307.922 775.863 311.644 781.874 309.128 787.285L284.923 839.353ZM280.765 826.797L299.814 785.82L288.26 786.437C285.856 786.565 283.586 785.51 282.135 783.589L275.158 774.358L256.109 815.335L280.765 826.797Z" fill="white"/>
<path fill-rule="evenodd" clip-rule="evenodd" d="M417.929 684.631L337.27 858.136L328.139 853.89L408.797 680.385L417.929 684.631Z" fill="white"/>
<path d="M339.169 770.44C338.053 772.842 335.104 773.838 332.582 772.666V772.666C330.06 771.494 328.921 768.597 330.037 766.195L336.607 752.062C337.724 749.661 340.673 748.664 343.195 749.837V749.837C345.716 751.009 346.856 753.906 345.739 756.308L339.169 770.44Z" fill="white"/>
<path d="M302.642 753.46C301.526 755.861 298.576 756.858 296.055 755.686V755.686C293.533 754.513 292.394 751.616 293.51 749.214L300.08 735.082C301.197 732.68 304.146 731.684 306.668 732.856V732.856C309.189 734.028 310.328 736.925 309.212 739.327L302.642 753.46Z" fill="white"/>
<path fill-rule="evenodd" clip-rule="evenodd" d="M326.101 720.913C324.017 725.396 325.394 730.456 329.176 732.214C332.959 733.973 337.715 731.764 339.799 727.281C339.802 727.275 339.805 727.269 339.807 727.262L344.516 717.134L330.818 710.767L326.101 720.913L326.101 720.913Z" fill="white"/>
<path d="M401.504 523.532V525.092H427.244V523.532H401.504ZM415.024 524.312V547.972H416.532V524.312H415.024ZM400.828 511.52V522.596C400.828 529.408 400.1 538.56 394.536 545.32C394.9 545.528 395.42 545.944 395.68 546.256C401.452 539.34 402.388 529.668 402.388 522.596V511.52H400.828ZM424.332 508.244C419.184 509.752 408.94 510.896 400.828 511.52C401.036 511.936 401.244 512.508 401.348 512.82C409.616 512.3 419.756 511.104 425.684 509.492L424.332 508.244ZM383.408 507.568C385.8 510.116 388.816 513.704 390.324 515.888L391.624 515.056C390.168 512.924 387.204 509.544 384.656 506.944L383.408 507.568ZM380.704 518.696V520.256H392.872V518.696H380.704ZM389.492 543.76L388.4 544.54C392.404 551.716 399.58 552.964 411.852 552.964C417.208 552.964 423.604 552.86 427.972 552.6C428.076 552.132 428.232 551.3 428.544 550.884C423.812 551.248 417.156 551.404 411.8 551.404C400.516 551.404 393.028 550.416 389.492 543.76ZM392.144 532.008V532.424C390.324 542.408 385.748 549.064 379.924 552.652C380.288 552.912 380.808 553.432 381.068 553.848C387.048 550.052 391.78 543.136 393.756 532.32L392.82 531.956L392.508 532.008H392.144ZM381.172 534.192C381.536 533.828 382.732 533.516 384.24 533.516H392.82V532.008H382.68L381.172 532.684V534.192ZM381.172 534.192C381.172 533.568 382.888 532.736 382.888 532.736C386.164 529.46 391.728 522.752 394.432 519.216L393.028 518.436L392.3 518.8V518.904C390.376 521.608 384.552 528.94 382.68 530.708C381.796 531.696 380.964 532.008 380.288 532.216C380.548 532.684 381.016 533.672 381.172 534.192ZM461.928 518.072V545.84H463.488V518.072H461.928ZM447.888 525.352H477.892V530.552H447.888V525.352ZM447.888 518.644H477.892V523.792H447.888V518.644ZM446.328 517.136V532.112H479.4V517.136H446.328ZM481.324 536.324V551.248C481.324 551.924 481.116 552.08 480.336 552.132C479.556 552.184 477.06 552.184 473.68 552.132C473.94 552.6 474.252 553.172 474.304 553.536C478.256 553.536 480.44 553.536 481.532 553.276C482.572 552.964 482.832 552.444 482.832 551.248V536.324H481.324ZM448.876 545.736L448.98 547.348C455.376 547.088 465.1 546.62 474.564 546.1L474.616 544.644C464.892 545.112 455.064 545.528 448.876 545.736ZM469.26 540.432C472.12 543.136 475.084 546.932 476.28 549.584L477.528 548.752C476.436 546.1 473.42 542.356 470.56 539.704L469.26 540.432ZM452.776 506.788V516.408H454.284V506.788H452.776ZM470.924 506.788V516.408H472.432V506.788H470.924ZM440.296 510.532V512.092H461.616V510.532H440.296ZM463.8 510.532V512.092H485.12V510.532H463.8ZM440.712 536.324V537.884H482V536.324H440.712ZM442.948 533.984V553.692H444.456V533.984H442.948ZM498.38 527.016V528.524H544.764V527.016H498.38ZM502.54 539.236V540.744H540.656V539.236H502.54ZM499.108 545.424V546.932H544.088V545.424H499.108ZM504.62 521.14V522.7H537.536V533.308H504.308V534.868H539.044V521.14H504.62ZM520.584 517.864V553.64H522.144V517.864H520.584ZM504.776 510.116V511.676H521.52V510.116H504.776ZM525.576 510.168V511.728H544.92V510.168H525.576ZM506.596 506.476C504.776 510.48 501.708 514.328 498.38 516.98C498.796 517.24 499.472 517.708 499.732 517.916C502.852 515.16 506.076 511.104 508.052 506.84L506.596 506.476ZM526.98 506.528C525.524 510.064 522.924 513.288 520.012 515.524C520.376 515.784 521.052 516.304 521.312 516.564C524.172 514.224 526.98 510.688 528.488 506.892L526.98 506.528ZM508.936 513.652C510.496 515.16 512.472 517.292 513.46 518.592L514.656 517.708C513.668 516.512 511.692 514.484 510.132 512.976L508.936 513.652ZM531.66 513.86C533.324 515.316 535.3 517.396 536.288 518.696L537.38 517.708C536.392 516.46 534.364 514.484 532.752 513.08L531.66 513.86ZM567.02 529.72V531.228H593.436V529.72H567.02ZM565.876 538.612V540.172H594.788V538.612H565.876ZM584.908 530.188V552.652H586.468V530.188H584.908ZM573.676 530.292V539.288C573.676 542.408 572.636 548.388 566.604 552.08C567.02 552.34 567.54 552.86 567.8 553.224C574.04 549.064 575.184 542.304 575.184 539.288V530.292H573.676ZM560.312 516.616V518.124H576.432V516.616H560.312ZM584.128 516.616V518.124H600.456V516.616H584.128ZM599.832 509.284V550.832C599.832 551.664 599.572 551.924 598.74 551.976C597.856 552.028 594.892 552.028 591.46 551.976C591.772 552.496 591.98 553.224 592.084 553.64C596.036 553.64 598.532 553.64 599.728 553.38C600.924 553.068 601.392 552.34 601.392 550.78V509.284H599.832ZM560.416 509.284V510.792H575.756V524.312H560.416V525.82H577.264V509.284H560.416ZM600.404 509.284H583.088V525.82H600.404V524.312H584.596V510.792H600.404V509.284ZM559.428 509.284V553.744H560.988V509.284H559.428ZM624.532 507.464C625.676 509.648 627.028 512.612 627.6 514.536L629.004 513.756C628.38 511.988 627.028 509.076 625.78 506.84L624.532 507.464ZM615.588 515.732V517.292H638.78V515.732H615.588ZM623.648 525.976V527.536H634.932V525.976H623.648ZM634.204 525.976V526.392C633.788 543.656 633.268 549.584 632.228 550.832C631.864 551.404 631.396 551.456 630.564 551.456C629.784 551.456 627.34 551.456 624.74 551.196C625 551.664 625.104 552.34 625.156 552.808C627.392 552.964 629.68 553.016 630.876 552.964C632.176 552.964 632.904 552.652 633.58 551.82C634.932 550.156 635.296 544.696 635.712 527.12C635.764 526.756 635.764 525.976 635.764 525.976H634.204ZM644.136 516.772V518.28H662.544V516.772H644.136ZM645.956 506.788C644.136 515.628 641.12 524.312 637.012 529.98C637.428 530.24 638.104 530.604 638.416 530.864C642.472 525.04 645.488 516.304 647.568 507.1L645.956 506.788ZM657.396 517.188C654.588 534.92 648.712 546.048 635.348 552.444C635.712 552.756 636.232 553.38 636.44 553.744C649.96 546.828 655.94 535.752 658.956 517.448L657.396 517.188ZM644.136 518.8L642.784 519.06C645.436 535.232 651.052 548.18 661.712 553.692C662.024 553.276 662.544 552.756 662.908 552.444C652.352 547.4 646.736 534.4 644.136 518.8ZM622.764 516.252V528.784C622.764 536.844 621.984 545.788 614.86 552.808C615.276 553.12 615.796 553.484 616.056 553.796C623.336 546.36 624.324 537.572 624.324 528.784V516.252H622.764ZM708.46 508.504C711.476 510.532 714.96 513.548 716.728 515.524L717.82 514.38C716.104 512.456 712.568 509.544 709.552 507.516L708.46 508.504ZM674.868 517.396V518.904H720.784V517.396H674.868ZM676.532 528.472V530.032H699.984V528.472H676.532ZM687.348 529.096V548.596H688.908V529.096H687.348ZM675.336 550.572L676.012 552.028C682.616 550.468 692.496 548.024 701.648 545.736L701.492 544.28C691.664 546.672 681.42 549.116 675.336 550.572ZM702.324 507.048C702.636 533.36 707.784 553.796 717.248 553.796C720.316 553.796 721.148 550.936 721.564 542.668C721.148 542.512 720.472 542.252 720.108 541.94C719.744 549.324 719.12 552.236 717.352 552.236C709.5 552.236 704.092 533.932 703.936 507.048H702.324ZM751.672 534.14V535.648H779.44V534.14H751.672ZM767.48 534.868L766.18 535.492C769.196 541.004 774.76 547.348 779.232 550.468C779.492 550.052 780.012 549.532 780.428 549.22C775.852 546.412 770.392 540.38 767.48 534.868ZM755.572 519.58H776.008V527.016H755.572V519.58ZM755.572 510.688H776.008V518.02H755.572V510.688ZM754.064 509.18V528.524H777.568V509.18H754.064ZM764.048 534.816C761.188 540.796 755.572 547.036 750.424 549.792C750.788 550.104 751.256 550.624 751.516 550.936C756.612 547.92 762.332 541.576 765.296 535.336L764.048 534.816ZM764.932 510.012V527.796V553.64H766.44V527.796V510.012H764.932ZM735.188 522.388V523.896H749.644V522.388H735.188ZM735.188 528.992V530.5H749.644V528.992H735.188ZM733.16 515.836V517.396H751.36V515.836H733.16ZM735.968 535.7V537.26H748.396V548.7H735.968V550.26H750.008V535.7H735.968ZM735.292 535.7V552.964H736.852V535.7H735.292ZM739.296 507.412C740.804 509.388 742.572 512.196 743.404 514.016L744.756 513.08C743.872 511.312 742.156 508.66 740.492 506.632L739.296 507.412ZM823.172 530.604V551.508H824.68V530.604H823.172ZM808.976 550.624V552.132H838.824V550.624H808.976ZM812.096 539.912V541.42H836.484V539.912H812.096ZM814.332 511.312H833.988V523.428H814.332V511.312ZM812.824 509.804V524.988H835.496V509.804H812.824ZM834.716 528.108C829.724 529.772 819.376 530.812 811.264 531.384C811.524 531.8 811.68 532.372 811.732 532.736C820.052 532.216 830.4 531.124 836.172 529.304L834.716 528.108ZM801.8 510.584V553.484H803.36V510.584H801.8ZM792.284 521.504V523.012H810.9V521.504H792.284ZM801.852 521.972C799.772 529.096 795.144 537.728 791.244 541.888C791.608 542.148 792.128 542.72 792.336 543.084C796.288 538.612 800.916 529.668 803.1 522.44L801.852 521.972ZM809.132 507.776C805.492 509.492 798.212 510.948 792.284 511.936C792.492 512.352 792.752 512.82 792.856 513.184C798.836 512.3 806.168 510.792 810.432 508.972L809.132 507.776ZM803.152 527.64L802.216 528.368C803.828 529.772 808.508 534.972 809.756 536.688L810.848 535.44C809.704 534.088 804.504 528.836 803.152 527.64ZM882.348 506.788C881.88 508.504 880.892 511.26 880.164 512.924L881.464 513.392C882.244 511.832 883.076 509.44 883.908 507.36L882.348 506.788ZM873.352 521.868H892.8V528.42H873.352V521.868ZM873.352 513.86H892.8V520.308H873.352V513.86ZM871.844 512.352V529.98H894.308V512.352H871.844ZM882.764 529.512V551.3C882.764 551.924 882.608 552.08 881.88 552.132C881.152 552.184 878.864 552.184 875.9 552.132C876.16 552.6 876.42 553.224 876.524 553.64C879.956 553.64 881.932 553.64 882.972 553.38C883.96 553.068 884.272 552.496 884.272 551.248V529.512H882.764ZM869.868 535.44V536.948H879.54V535.44H869.868ZM879.176 535.44V535.752C877.356 542.72 872.208 547.816 867.164 550.052C867.528 550.364 867.892 550.832 868.152 551.196C873.404 548.648 878.604 543.396 880.684 535.7L879.8 535.336L879.488 535.44H879.176ZM894.672 532.944C892.748 535.18 889.264 538.456 886.768 540.38L887.808 541.056C890.356 539.184 893.58 536.272 895.92 533.724L894.672 532.944ZM884.168 531.644L882.92 532.06C885.312 540.276 890.356 547.712 896.544 551.04C896.804 550.676 897.272 550.156 897.636 549.844C891.448 546.88 886.456 539.6 884.168 531.644ZM862.64 526.444C863.992 530.084 865.292 534.92 865.76 537.78L867.32 537.364C866.904 534.608 865.448 529.876 864.096 526.184L862.64 526.444ZM857.804 539.496C858.48 543.084 859.104 547.764 859.26 550.832L860.768 550.572C860.612 547.504 859.988 542.876 859.312 539.288L857.804 539.496ZM853.228 539.392C852.552 543.604 851.616 548.284 850.316 551.612C850.732 551.768 851.512 552.08 851.824 552.236C852.916 548.96 854.06 544.072 854.84 539.704L853.228 539.392ZM851.148 525.092C851.148 524.572 852.604 523.948 852.604 523.948V523.896C856.088 519.684 859.52 513.548 862.38 507.516L860.768 506.788C858.428 512.612 854.528 518.8 853.332 520.36C852.292 522.024 851.356 523.168 850.576 523.324C850.784 523.792 851.044 524.676 851.148 525.092ZM851.148 525.092C851.824 524.78 852.968 524.572 861.392 523.48C861.392 523.168 861.392 522.544 861.444 522.076L852.344 523.012L851.148 523.636V525.092ZM851.46 536.48C851.46 535.96 852.916 535.44 852.916 535.44V535.388C857.596 530.292 862.328 523.116 866.384 515.888L864.824 515.16C861.34 522.076 855.984 529.408 854.424 531.228C852.916 533.152 851.772 534.608 850.888 534.764C851.096 535.232 851.356 536.064 851.46 536.48ZM851.46 536.48C852.24 536.064 853.592 535.804 865.5 533.932C865.448 533.62 865.396 532.996 865.448 532.58L852.656 534.348L851.46 535.076V536.48ZM862.328 538.56C863.472 541.628 864.772 545.684 865.24 548.284L866.748 547.868C866.228 545.268 864.928 541.264 863.68 538.196L862.328 538.56ZM931.228 524.884V526.392H952.34V524.884H931.228ZM909.908 549.74V551.248H955.824V549.74H909.908ZM930.292 507.724V550.416H931.8V507.724H930.292ZM977.04 532.84H1006.84V537.728H977.04V532.84ZM977.04 539.236H1006.84V544.228H977.04V539.236ZM977.04 526.444H1006.84V531.28H977.04V526.444ZM975.48 524.936V545.736H1008.34V524.936H975.48ZM997.372 548.076C1003.46 549.792 1009.38 551.768 1013.02 553.38L1014.43 552.236C1010.58 550.624 1004.44 548.596 998.516 547.036L997.372 548.076ZM984.424 546.932C980.472 549.012 974.18 550.884 968.98 552.132C969.344 552.444 969.968 553.172 970.124 553.432C975.22 552.08 981.668 549.844 985.828 547.608L984.424 546.932ZM990.352 510.688V512.248H1012.14V510.688H990.352ZM991.6 506.84C990.352 510.844 988.168 514.692 985.568 517.396C985.984 517.604 986.608 518.02 986.868 518.28C989.416 515.524 991.756 511.416 993.108 507.152L991.6 506.84ZM998.672 511V512.508C998.672 515.784 997.684 520.412 983.384 522.96C983.696 523.272 984.164 523.844 984.372 524.26C998.932 521.4 1000.23 516.564 1000.23 512.508V511H998.672ZM999.712 515.108L998.516 515.524C1001.17 519.528 1007.41 522.648 1014.32 523.792C1014.53 523.376 1015 522.804 1015.36 522.492C1008.45 521.608 1002.26 518.696 999.712 515.108ZM969.656 510.428V511.988H981.356V510.428H969.656ZM968.512 518.644V520.204H982.76V518.644H968.512ZM1011.78 510.688V511.052C1010.74 513.288 1009.28 515.836 1008.08 517.552L1009.38 517.916C1010.68 516.252 1012.14 513.444 1013.44 511.052L1012.45 510.584L1012.14 510.688H1011.78ZM1043.08 509.18V510.688H1073.4V509.18H1043.08ZM1042.35 509.18V523.324C1042.35 532.008 1041.73 543.76 1035.75 552.392C1036.11 552.548 1036.74 552.912 1037 553.224C1043.13 544.436 1043.91 532.216 1043.91 523.324V509.18H1042.35ZM1049.63 527.536H1069.39V533.828H1049.63V527.536ZM1049.63 519.788H1069.39V525.976H1049.63V519.788ZM1048.12 518.228V535.388H1070.9V518.228H1048.12ZM1050.93 539.132C1049.16 542.876 1046.56 546.568 1043.86 549.22C1044.22 549.48 1044.95 549.948 1045.21 550.208C1047.81 547.504 1050.57 543.396 1052.44 539.548L1050.93 539.132ZM1065.6 539.496C1068.04 542.772 1070.95 547.14 1072.36 549.688L1073.81 548.908C1072.3 546.464 1069.39 542.148 1066.95 538.924L1065.6 539.496ZM1058.63 512.352C1058.21 514.224 1057.33 517.136 1056.7 518.904L1057.9 519.372C1058.68 517.708 1059.46 515.108 1060.19 512.872L1058.63 512.352ZM1058.58 534.244V551.404C1058.58 552.028 1058.37 552.236 1057.64 552.288C1056.91 552.288 1054.52 552.34 1051.4 552.236C1051.66 552.704 1051.87 553.276 1051.97 553.64C1055.66 553.692 1057.74 553.692 1058.78 553.38C1059.77 553.12 1060.08 552.6 1060.08 551.404V534.244H1058.58ZM1029.46 508.556C1032.47 510.48 1036.32 513.184 1038.3 514.848L1039.23 513.6C1037.26 512.04 1033.46 509.44 1030.44 507.568L1029.46 508.556ZM1026.86 522.544C1029.98 524.26 1033.88 526.808 1035.96 528.316L1036.84 527.068C1034.76 525.56 1030.86 523.168 1027.79 521.504L1026.86 522.544ZM1028.36 551.82L1029.66 552.86C1032.32 548.284 1035.75 541.368 1038.09 535.96L1036.89 535.024C1034.4 540.692 1030.86 547.816 1028.36 551.82Z" fill="white"/>
<path d="M433.5 603.86V605.66H479.04V603.86H433.5ZM429.72 574.88V576.68H456.78V574.88H429.72ZM456.12 612.08V613.82H475.98V612.08H456.12ZM429.06 620.72V622.46H483.12V620.72H429.06ZM455.1 604.34V621.56H456.9V604.34H455.1ZM442.62 570.14V601.88H444.36V570.14H442.62ZM439.92 609.74V621.38H441.72V609.74H439.92ZM433.68 582.56H452.76V588.44H433.68V582.56ZM431.88 580.76V590.18H454.56V580.76H431.88ZM465.3 570.14C463.5 576.62 460.44 582.5 456.42 586.4C456.9 586.7 457.62 587.24 457.92 587.54C461.88 583.4 465.18 577.22 467.04 570.5L465.3 570.14ZM463.32 577.46L462.42 579.26H482.94V577.46H463.32ZM477.66 578.18C474.66 589.7 467.1 596.66 456.12 600.5C456.54 600.86 457.14 601.64 457.38 602C468.36 597.62 476.22 590.66 479.4 578.54L477.66 578.18ZM463.14 578.54L461.88 579.98C464.4 587.84 470.64 597.5 481.8 602.18C482.04 601.76 482.58 601.04 483 600.68C471.72 596.36 465.54 586.7 463.14 578.54ZM442.5 589.82C439.62 594.02 433.8 598.4 428.82 600.32C429.24 600.62 429.78 601.22 430.08 601.64C435 599.48 440.88 594.86 443.82 590.48L442.5 589.82ZM444.54 592.58C447.84 594.2 451.68 596.6 453.78 598.4L454.74 597.02C452.76 595.22 448.8 592.88 445.56 591.44L444.54 592.58ZM508.56 590V591.74H539.04V590H508.56ZM507.12 618.2V620H540.48V618.2H507.12ZM506.22 600.98V624.08H507.96V602.78H540.06V623.9H541.86V600.98H506.22ZM525.3 570.14C519.42 579.38 508.62 588.02 496.86 592.64C497.34 592.94 497.82 593.6 498.12 593.96C509.88 589.16 520.8 580.28 526.8 570.86L525.3 570.14ZM524.64 573.02L523.08 573.74C529.62 581.9 538.5 588.14 549.9 593.78C550.2 593.24 550.8 592.58 551.28 592.22C539.94 586.88 530.88 580.88 524.64 573.02ZM603.9 572.12C607.38 574.46 611.4 577.94 613.44 580.22L614.7 578.9C612.72 576.68 608.64 573.32 605.16 570.98L603.9 572.12ZM565.14 582.38V584.12H618.12V582.38H565.14ZM567.06 595.16V596.96H594.12V595.16H567.06ZM579.54 595.88V618.38H581.34V595.88H579.54ZM565.68 620.66L566.46 622.34C574.08 620.54 585.48 617.72 596.04 615.08L595.86 613.4C584.52 616.16 572.7 618.98 565.68 620.66ZM596.82 570.44C597.18 600.8 603.12 624.38 614.04 624.38C617.58 624.38 618.54 621.08 619.02 611.54C618.54 611.36 617.76 611.06 617.34 610.7C616.92 619.22 616.2 622.58 614.16 622.58C605.1 622.58 598.86 601.46 598.68 570.44H596.82ZM642.96 574.1V575.9H659.94V574.1H642.96ZM658.92 574.1C658.92 584.42 660.24 608.72 685.38 624.02C685.74 623.6 686.46 623 686.88 622.7C661.74 607.64 660.66 584.12 660.66 574.1H658.92ZM658.08 584.48C654 602.54 646.2 615.14 632.1 622.7C632.64 623.06 633.42 623.78 633.72 624.08C647.7 616.04 655.56 603.62 660 584.84L658.08 584.48ZM706.08 576.86V622.46H707.88V578.6H746.82V621.98H748.62V576.86H706.08ZM706.68 615.26V617.06H748.56V615.26H706.68ZM781.92 605.9H808.44V613.22H781.92V605.9ZM781.92 596.9H808.44V604.1H781.92V596.9ZM780.18 595.1V615.02H810.24V595.1H780.18ZM768.72 578.72V580.46H821.4V578.72H768.72ZM793.98 570.14V595.82H795.78V570.14H793.98ZM792.78 579.14C787.44 586.34 777.06 593.48 768.54 596.66C768.96 597.08 769.5 597.62 769.8 598.1C778.2 594.62 788.7 587.42 794.28 579.86L792.78 579.14ZM770.16 620.3V622.04H820.2V620.3H770.16ZM795.3 580.04C803.64 585.32 813.9 592.94 819 597.62L820.32 596.36C815.04 591.62 804.9 584.24 796.56 579.08L795.3 580.04ZM862.5 599.54V601.28H876.48V599.54H862.5ZM862.38 588.8V590.6H875.82V610.34H862.38V612.14H877.56V588.8H862.38ZM861.48 588.8V616.1H863.22V588.8H861.48ZM866.58 569.9C864.36 577.82 860.82 585.32 856.08 590.3C856.62 590.6 857.4 591.14 857.76 591.38C862.2 586.16 865.98 578.54 868.32 570.26L866.58 569.9ZM863.58 579.62L862.74 581.36H887.64V579.62H863.58ZM887.04 579.62V580.1C886.08 609.2 884.94 619.28 882.9 621.56C882.36 622.34 881.76 622.46 880.56 622.46C879.3 622.46 875.88 622.4 872.04 622.1C872.4 622.58 872.58 623.36 872.64 623.9C875.76 624.14 879 624.2 880.8 624.14C882.48 624.14 883.56 623.78 884.58 622.52C886.92 619.82 887.82 610.4 888.78 580.94C888.78 580.58 888.78 579.62 888.78 579.62H887.04ZM838.56 588.14V589.88H854.58V588.14H838.56ZM838.56 595.76V597.5H854.58V595.76H838.56ZM836.16 580.58V582.38H856.92V580.58H836.16ZM839.16 603.5V605.3H852.84V618.5H839.16V620.3H854.52V603.5H839.16ZM838.44 603.5V623.42H840.12V603.5H838.44ZM842.7 570.86C844.44 573.14 846.48 576.38 847.44 578.48L848.88 577.34C847.92 575.3 845.88 572.24 844.02 569.9L842.7 570.86ZM907.2 574.52V576.32H953.82V574.52H907.2ZM904.14 600.08V601.82H957.12V600.08H904.14ZM911.94 580.7C914.64 585.56 917.4 591.92 918.48 595.82L920.1 595.1C919.08 591.38 916.26 585.02 913.5 580.16L911.94 580.7ZM947.4 579.8C945.6 584.54 942.24 591.56 939.6 595.64L941.04 596.3C943.74 592.22 946.92 585.62 949.26 580.46L947.4 579.8ZM929.52 575V624.2H931.32V575H929.52ZM981.24 618.92V620.72H1015.68V618.92H981.24ZM980.22 600.14V624.2H982.02V601.88H1014.78V623.96H1016.58V600.14H980.22ZM1005.36 579.2C1011.6 584.36 1018.38 591.74 1021.38 596.78L1023 595.64C1019.94 590.72 1013.04 583.34 1006.8 578.24L1005.36 579.2ZM975.78 594.02C975.78 593.48 977.46 592.88 977.46 592.88V592.82C983.94 587.36 990.54 579.8 996.78 571.52L995.04 570.74C989.76 578.42 982.26 586.34 979.98 588.44C977.94 590.48 976.26 591.92 975.18 592.1C975.42 592.58 975.72 593.54 975.78 594.02ZM975.78 594.02C977.34 593.42 980.04 593.24 1017.78 590.9C1017.6 590.54 1017.54 589.82 1017.48 589.34L977.64 591.68L975.78 592.58V594.02Z" fill="white"/>
</g>
<defs>
<clipPath id="clip0_2_50">
<rect width="1440" height="914" fill="white"/>
</clipPath>
</defs>
</svg>
